<?xml version="1.0" encoding="UTF-8" standalone="no"?>
<svg
   xmlns:dc="http://purl.org/dc/elements/1.1/"
   xmlns:cc="http://creativecommons.org/ns#"
   xmlns:rdf="http://www.w3.org/1999/02/22-rdf-syntax-ns#"
   xmlns:svg="http://www.w3.org/2000/svg"
   xmlns="http://www.w3.org/2000/svg"
   xmlns:sodipodi="http://sodipodi.sourceforge.net/DTD/sodipodi-0.dtd"
   xmlns:inkscape="http://www.inkscape.org/namespaces/inkscape"
   sodipodi:docname="master-jenkins-normal3.svg"
   inkscape:version="0.91 r13725"
   id="svg3554"
   viewBox="0, 0, 300, 350"
   height="350"
   width="300"
   y="0"
   x="0"
   version="1.1">
  <sodipodi:namedview
     inkscape:current-layer="svg3554"
     inkscape:window-maximized="1"
     inkscape:window-y="0"
     inkscape:window-x="0"
     inkscape:cy="197.96558"
     inkscape:cx="174.13112"
     inkscape:zoom="2.2828775"
     inkscape:snap-others="true"
     showgrid="false"
     id="namedview3728"
     inkscape:window-height="855"
     inkscape:window-width="1436"
     inkscape:pageshadow="2"
     inkscape:pageopacity="0"
     guidetolerance="10"
     gridtolerance="10"
     objecttolerance="10"
     borderopacity="1"
     bordercolor="#666666"
     pagecolor="#ffffff"
     inkscape:snap-nodes="true" />
  <metadata
     id="metadata3732">
    <rdf:RDF>
      <cc:Work
         rdf:about="">
        <dc:format>image/svg+xml</dc:format>
        <dc:type
           rdf:resource="http://purl.org/dc/dcmitype/StillImage" />
        <dc:title></dc:title>
      </cc:Work>
    </rdf:RDF>
  </metadata>
  <defs
     id="defs3730" />
  <g
     id="レイヤー_1">
    <path
       id="path3557"
       fill="#d33833"
       d="M118.54,54.725 C178.768,59.721 220.665,106.506 222.147,166.442 C222.147,228.228 173.179,278.316 112.772,278.316 C52.367,278.316 3.398,228.228 3.398,166.442 C3.953,133.139 15.209,108.201 38.291,84.591 C39.987,86.74 42.587,87.8 45.203,88.27 C47.468,88.566 49.392,88.246 51.63,87.557 C56.852,85.951 60.218,83.364 65.433,78.178 C65.581,78.032 65.73,77.883 65.926,77.687 C66.167,77.446 66.167,77.446 66.404,77.21 C67.612,76.02 68.801,74.795 70.142,73.752 C74.975,72.008 72.771,72.777 76.748,71.421 C78.146,70.952 79.327,70.563 81.796,69.755 C90.86,66.788 94.861,65.389 100.081,63.214 C100.402,63.08 100.725,62.944 101.052,62.804 C103.969,61.559 105.756,60.724 111.471,57.991 C113.819,56.884 116.153,55.744 118.54,54.725 z" />
    <path
       id="path3559"
       fill="#ef3d3a"
       d="M100.717,62.947 L107.438,74.149 C-0.062,77.483 7.855,194.149 7.855,194.149 L4.521,182.483 L2.021,160.816 L10.355,128.316 L24.938,100.399 L38.481,84.826 C40.159,86.839 42.703,87.821 45.203,88.27 C47.468,88.566 49.392,88.246 51.63,87.557 C56.852,85.951 60.218,83.364 65.433,78.178 C65.581,78.032 65.73,77.883 65.926,77.687 C66.167,77.446 66.167,77.446 66.404,77.21 C67.612,76.02 68.801,74.795 70.142,73.752 C74.975,72.008 72.771,72.777 76.748,71.421 C78.146,70.952 79.327,70.563 81.796,69.755 C90.86,66.788 94.861,65.389 100.081,63.214 C100.615,62.99 100.403,63.08 100.717,62.947 z" />
    <path
       id="path3561"
       fill="#231f20"
       d="M124.376,52.337 C150.514,54.523 174,67.291 192.539,85.376 C212.935,106.235 225.545,135.06 225.542,166.859 C225.545,198.655 212.935,227.481 192.539,248.338 C172.152,269.199 143.925,282.129 112.771,282.129 C81.617,282.129 53.393,269.199 33.003,248.338 C12.608,227.481 0,198.655 0,166.859 C0,135.058 12.608,106.235 33.003,85.377 C35.622,82.677 34.424,83.814 36.537,81.902 C37.482,84.09 39.119,85.739 41.176,86.891 L37.86,90.123 C18.67,109.758 6.795,136.868 6.795,166.859 C6.795,196.844 18.67,223.958 37.86,243.589 C57.06,263.22 83.519,275.334 112.771,275.334 C142.024,275.334 168.485,263.22 187.682,243.589 C206.871,223.958 218.749,196.844 218.749,166.859 C218.749,136.868 206.871,109.758 187.682,90.123 C168.485,70.495 142.024,58.382 112.771,58.379 L112.771,58.379 L110.538,58.437 L111.471,57.991 C115.698,55.937 119.986,54.016 124.376,52.337 z" />
    <g
       id="g3563">
      <path
         id="path3565"
         fill="#f0d6b7"
         d="M174.759,49.359 L180.146,57.978 L186.812,70.062 L188.479,100.062 L183.479,125.895 L174.312,148.812 L165.562,160.895 L159.314,167.562 L142.646,170.062 L120.146,172.562 L105.562,172.978 L91.396,172.562 L80.562,169.228 L70.979,158.812 L63.479,137.562 L61.812,132.978 L51.812,129.645 L45.979,120.062 L41.812,106.312 L46.396,94.228 L57.229,90.478 L65.979,94.645 L70.146,103.812 L75.146,102.978 L76.812,100.895 L75.146,91.312 L74.729,79.228 L75.748,72.431 C76.797,72.075 76.297,72.245 77.248,71.921 C78.646,71.452 79.827,71.063 82.296,70.255 C91.36,67.288 95.361,65.889 100.581,63.714 C100.902,63.58 101.225,63.444 101.552,63.304 C104.469,62.059 106.256,61.224 111.971,58.491 C125.185,52.171 131.409,50.022 138.542,50.022 C139.005,50.022 139.941,50.055 141.457,50.127 C142.139,50.16 145.631,50.335 146.674,50.385 C150.07,50.548 152.868,50.656 155.596,50.719 C161.254,50.848 165.849,50.755 169.515,50.347 C172.537,49.945 170.782,50.232 174.759,49.359 z" />
      <path
         id="path3567"
         stroke-width="1.25"
         stroke="#000000"
         fill-opacity="0"
         d="M174.759,49.359 L180.146,57.978 L186.812,70.062 L188.479,100.062 L183.479,125.895 L174.312,148.812 L165.562,160.895 L159.314,167.562 L142.646,170.062 L120.146,172.562 L105.562,172.978 L91.396,172.562 L80.562,169.228 L70.979,158.812 L63.479,137.562 L61.812,132.978 L51.812,129.645 L45.979,120.062 L41.812,106.312 L46.396,94.228 L57.229,90.478 L65.979,94.645 L70.146,103.812 L75.146,102.978 L76.812,100.895 L75.146,91.312 L74.729,79.228 L75.748,72.431 C76.797,72.075 76.297,72.245 77.248,71.921 C78.646,71.452 79.827,71.063 82.296,70.255 C91.36,67.288 95.361,65.889 100.581,63.714 C100.902,63.58 101.225,63.444 101.552,63.304 C104.469,62.059 106.256,61.224 111.971,58.491 C125.185,52.171 131.409,50.022 138.542,50.022 C139.005,50.022 139.941,50.055 141.457,50.127 C142.139,50.16 145.631,50.335 146.674,50.385 C150.07,50.548 152.868,50.656 155.596,50.719 C161.254,50.848 165.849,50.755 169.515,50.347 C172.537,49.945 170.782,50.232 174.759,49.359 z" />
    </g>
    <path
       id="path30"
       fill="#28301f"
       d="M144.646,239.144 L85.062,241.644 L85.062,251.644 L90.062,286.644 L87.562,289.562 L45.896,275.394 L42.978,270.394 L38.812,223.312 L29.23,194.978 L27.146,188.312 L60.478,165.395 L70.896,161.228 L80.062,172.478 L87.979,179.562 L97.146,182.478 L101.312,183.728 L106.312,205.394 L110.062,209.978 L119.646,206.644 L112.979,219.562 L149.229,236.644 L144.646,239.144" />
    <path
       id="path3570"
       fill="#555555"
       d="M75.133,71.971 L73.396,87.895 L75.896,97.478 L74.646,102.478 L69.646,103.312 L65.478,94.145 L56.728,89.978 L45.896,93.728 L45.254,88.273 C47.414,88.613 49.558,88.121 51.63,87.557 C56.852,85.951 60.218,83.364 65.433,78.178 C65.581,78.032 65.73,77.883 65.926,77.687 C66.167,77.446 66.167,77.446 66.404,77.21 C67.612,76.02 68.801,74.795 70.142,73.752 C71.804,73.153 73.46,72.538 75.133,71.971 z" />
    <path
       id="path3572"
       fill="#dcd9d8"
       d="M49.84,88.02 C49.926,89.043 49.841,88.093 50.479,90.811 L45.896,93.728 L45.254,88.273 C47.85,88.448 46.319,88.444 49.84,88.02 z" />
    <path
       id="path38"
       fill="#f7e4cd"
       d="M63.812,129.562 L69.268,124.275 C69.268,124.275 71.73,124.562 72.146,127.478 C72.562,130.395 73.812,156.645 91.729,170.813 C93.363,172.105 78.396,168.728 78.396,168.728 L65.062,147.895" />
    <path
       id="path40"
       fill="#f7e4cd"
       d="M140.481,121.645 C140.481,121.645 141.452,109.015 144.854,109.987 C148.255,110.958 148.255,114.359 148.255,114.359 C148.255,114.359 139.995,119.703 140.481,121.645" />
    <path
       id="path46"
       fill="#f7e4cd"
       d="M67.979,102.895 C67.979,102.895 52.145,93.312 50.479,102.479 C48.812,111.645 45.061,118.313 52.979,127.895 L47.562,126.229 L42.562,113.313 L40.896,100.813 L50.479,90.812 L61.312,91.645 L67.562,96.645 L67.979,102.895" />
    <path
       id="path3577"
       fill="#f7e4cd"
       d="M77.01,71.334 C76.051,73.902 76.644,72.18 75.491,76.582 C75.492,76.599 75.489,76.621 75.491,76.582 L75.448,71.863 C76.297,71.575 75.864,71.722 76.748,71.421 L77.01,71.334 z" />
    <path
       id="path54"
       fill="#3b4332"
       d="M80.062,172.478 L41.209,189.355 C41.209,189.355 57.542,253.688 48.812,274.562 L42.979,272.479 L42.562,247.895 L31.73,201.229 L27.146,188.312 L28.084,179.355 L71.542,166.272 L80.062,172.478" />
    <path
       id="path56"
       fill="#3b4332"
       d="M74.516,224.343 L79.359,230.592 L80.062,240.82 L77.01,241.1 C77.01,241.1 72.793,230.43 72.793,228.346 C72.793,226.263 71.35,223.878 71.35,223.878" />
    <path
       id="path58"
       fill="#3b4332"
       d="M84.229,243.729 L66.044,243.427 L68.558,248.361 L84.229,250.395" />
    <path
       id="path60"
       fill="#28301f"
       d="M148.396,239.562 L163.812,239.145 L167.562,277.479 L151.729,279.562 L148.396,239.562" />
    <path
       id="path62"
       fill="#28301f"
       d="M152.562,239.562 L175.896,238.312 C175.896,238.312 185.479,214.145 185.479,212.895 C185.479,211.645 197.041,172.355 197.041,172.355 L175.062,158.313 L171.312,154.979 L161.312,164.979 L161.312,203.729 L152.562,239.562" />
    <path
       id="path64"
       fill="#3b4332"
       d="M162.979,236.645 L148.396,239.562 L150.479,251.229 C155.895,253.729 165.062,247.062 165.062,247.062" />
    <path
       id="path66"
       fill="#3b4332"
       d="M177.663,172.355 L197.041,175.688 L195.042,168.022 L171.546,158.942 L175.542,172.355" />
    <path
       id="path68"
       fill="#ffffff"
       d="M98.688,321.649 L90.062,286.644 L85.771,260.815 L85.062,241.644 L124.105,239.566 L148.396,239.562 L146.188,283.315 L149.938,317.065 L149.521,323.315 L117.855,325.815 L98.688,321.649" />
    <path
       id="path70"
       fill="#dcd9d8"
       d="M142.979,239.145 C142.979,239.145 140.896,282.479 147.146,313.311 C147.146,313.311 134.646,321.229 116.312,323.312 L151.312,322.062 L155.479,319.562 L150.479,251.229 L149.229,236.644" />
    <path
       id="path72"
       fill="#ffffff"
       d="M168.273,274.149 L184.523,269.566 L215.355,267.899 L219.939,253.733 L211.605,229.149 L202.023,227.899 L188.689,232.066 L175.896,238.312 L169.105,237.066 L163.812,239.145" />
    <path
       id="path74"
       fill="#dcd9d8"
       d="M167.979,265.811 C167.979,265.811 178.811,260.812 180.479,261.229 L175.896,238.311 L181.313,236.229 C181.313,236.229 185.063,257.895 185.063,260.395 C185.063,260.395 208.395,261.645 210.479,261.645 C210.479,261.645 215.479,252.061 214.229,242.061 L218.813,255.395 L219.229,262.895 L212.563,272.895 L205.063,274.561 L192.563,274.145 L188.396,268.729 L173.813,270.811 L169.229,272.479" />
    <path
       id="path76"
       fill="#ffffff"
       d="M151.605,236.233 L142.439,212.899 L132.855,199.149 C132.855,199.149 134.938,193.315 137.855,193.315 C140.773,193.315 147.439,193.315 147.439,193.315 L156.605,196.649 L155.773,212.066 L151.605,236.233" />
    <path
       id="path78"
       fill="#dcd9d8"
       d="M153.396,228.312 C153.396,228.312 141.729,205.813 141.729,202.479 C141.729,202.479 143.811,197.479 146.729,198.729 C149.646,199.979 155.896,203.312 155.896,203.312 L155.896,195.395 L141.729,192.478 L132.146,193.728 L148.396,232.062 L151.729,232.479" />
    <path
       id="path80"
       fill="#ffffff"
       d="M102.439,173.317 L90.896,172.062 L80.062,168.728 L80.062,172.478 L84.209,179.688 L102.022,185.815" />
    <path
       id="path82"
       fill="#dcd9d8"
       d="M83.813,174.565 C83.813,174.565 96.731,179.983 100.897,178.733 L96.209,198.355 L89.209,186.688 L82.563,176.233 L83.813,174.565" />
    <path
       id="path84"
       fill="#d33833"
       d="M168.228,194.734 C161.158,194.527 154.77,193.687 149.178,192.109 C149.558,189.817 148.846,187.567 149.418,185.915 C150.976,184.793 153.589,184.81 155.945,184.547 C153.908,183.545 151.045,183.149 148.694,183.728 C148.639,182.137 147.925,181.15 147.493,179.905 C151.468,178.487 160.851,169.185 166.13,172.265 C168.645,173.73 169.714,182.098 169.909,186.167 C170.071,189.542 169.603,192.947 168.228,194.734" />
    <path
       id="path86"
       stroke-width="2.5"
       stroke="#d33833"
       fill-opacity="0"
       d="M168.728,195.234 C161.658,195.027 155.27,194.187 149.678,192.609 C150.058,190.317 149.346,188.067 149.918,186.415 C151.476,185.293 154.089,185.31 156.445,185.047 C154.408,184.045 151.545,183.649 149.194,184.228 C149.139,182.637 148.425,181.65 147.993,180.405 C151.968,178.987 161.351,169.685 166.63,172.765 C169.145,174.23 170.214,182.598 170.409,186.667 C170.571,190.042 170.103,193.447 168.728,195.234 z" />
    <path
       id="path88"
       fill="#d33833"
       d="M134.419,183.177 C134.4,183.712 134.378,184.25 134.356,184.79 C132.149,186.24 128.585,186.223 126.162,187.442 C129.734,187.598 132.545,188.458 134.977,189.67 C134.924,191.018 134.872,192.364 134.82,193.712 C130.774,196.482 127.077,200.607 122.313,203.204 C120.061,204.433 112.156,207.594 109.759,207.035 C108.403,206.72 108.281,205.038 107.739,203.452 C106.585,200.055 103.926,194.649 103.694,189.537 C103.398,183.079 102.747,172.257 109.706,173.587 C115.32,174.658 121.85,177.244 126.196,179.619 C128.852,181.072 130.389,182.867 134.419,183.177" />
    <path
       id="path90"
       stroke-width="2.5"
       stroke="#d33833"
       fill-opacity="0"
       d="M134.919,183.677 C134.9,184.212 134.878,184.75 134.856,185.29 C132.649,186.74 129.085,186.723 126.662,187.942 C130.234,188.098 133.045,188.958 135.477,190.17 C135.424,191.518 135.372,192.864 135.32,194.212 C131.274,196.982 127.577,201.107 122.813,203.704 C120.561,204.933 112.656,208.094 110.259,207.535 C108.903,207.22 108.781,205.538 108.239,203.952 C107.085,200.555 104.426,195.149 104.194,190.037 C103.898,183.579 103.247,172.757 110.206,174.087 C115.82,175.158 122.35,177.744 126.696,180.119 C129.352,181.572 130.889,183.367 134.919,183.677 z" />
    <path
       id="path92"
       fill="#d33833"
       d="M138.438,190.882 C137.82,187.364 137.106,186.36 137.382,183.292 C146.764,177.037 148.525,194.035 138.438,190.882" />
    <path
       id="path94"
       stroke-width="2.5"
       stroke="#d33833"
       fill-opacity="0"
       d="M138.938,191.382 C138.32,187.864 137.606,186.86 137.882,183.792 C147.264,177.537 149.025,194.535 138.938,191.382 z" />
    <path
       id="path96"
       fill="#ef3d3a"
       d="M152.021,193.733 C152.021,193.733 149.104,189.565 151.188,188.315 C153.271,187.065 155.355,188.317 156.605,186.233 C157.855,184.149 156.605,182.899 157.021,180.399 C157.438,177.899 159.523,177.482 161.605,177.065 C163.688,176.649 169.523,175.815 170.355,177.899 L167.855,170.399 L162.855,168.733 L147.021,177.899 L146.188,182.483 L146.188,191.649" />
    <path
       id="path98"
       fill="#ef3d3a"
       d="M108.272,207.483 C107.771,200.98 107.241,194.487 106.652,187.99 C105.77,178.29 108.982,179.983 117.39,179.983 C118.674,179.983 125.298,181.514 125.771,182.483 C128.044,187.124 121.971,186.093 128.389,189.593 C133.806,192.547 143.376,187.799 141.188,181.233 C139.963,179.773 134.805,180.778 132.956,179.819 C129.701,178.132 126.446,176.444 123.191,174.757 C119.049,172.608 109.478,169.475 105.062,172.478 C93.874,180.087 105.768,199.098 109.759,207.035" />
    <path
       id="path3602"
       fill="#231f20"
       d="M150.751,77.339 C152.371,78.232 152.176,79.675 152.659,81.382 C155.912,88.997 164.101,98.735 170.077,105.253 C171.545,106.858 173.961,108.398 174.23,109.459 C175.005,112.545 172.214,116.243 172.537,118.295 C164.39,123.529 155.305,129.22 141.955,127.9 C139.102,125.42 138.015,119.902 140.786,116.257 C142.229,118.737 141.322,123.298 145.342,123.984 C152.917,125.28 161.734,119.35 167.182,117.278 C170.561,111.582 166.891,109.487 163.847,105.82 C157.616,98.309 149.257,88.999 149.561,77.754 C150.223,77.354 149.837,77.518 150.751,77.339 z" />
    <path
       id="path108"
       fill="#231f20"
       d="M65.127,112.785 C62.573,111.328 61.965,104.908 58.967,104.725 C54.683,104.465 55.464,113.054 55.481,118.077 C52.532,115.399 52.013,107.155 54.18,102.922 C51.711,101.709 50.608,104.259 49.238,105.158 C50.999,92.37 67.944,99.227 65.127,112.785" />
    <path
       id="path116"
       fill="#3b4332"
       d="M171.945,203.239 C166.185,213.104 161.209,226.355 152.773,233.688 C154.542,224.022 157.931,209.415 158.364,198.667 C164.358,195.862 169.49,199.298 171.945,203.239" />
    <path
       id="path118"
       fill="#231f20"
       d="M202.94,238.695 C196.491,239.986 191.96,246.254 185.669,245.852 C189.126,240.978 195.185,238.923 202.94,238.695" />
    <path
       id="path120"
       fill="#231f20"
       d="M205.785,248.788 C200.529,249.343 194.355,250.194 189.024,249.755 C191.548,245.9 201.271,247.23 205.785,248.788" />
    <path
       id="path122"
       fill="#231f20"
       d="M207.606,257.489 C201.699,257.617 194.356,257.499 188.741,257.028 C192.062,253.461 203.775,255.704 207.606,257.489" />
    <path
       id="path124"
       fill="#dcd9d8"
       d="M160.83,281.3 C161.678,288.719 164.619,296.236 164.25,304.361 C160.984,305.463 159.107,306.426 154.731,306.42 C154.423,299.515 153.499,288.959 153.775,282.377 C155.928,282.519 159.101,280.839 160.83,281.3" />
    <path
       id="path126"
       fill="#f7e4cd"
       d="M151.306,171.96 C148.34,173.897 146.575,177.621 143.726,179.688 C137.409,180.001 126.85,177.316 122.209,173.688 C122.285,173.397 128.077,172.713 128.094,172.355 C134.857,175.369 149.079,169.298 155.907,168.688" />
    <path
       id="path128"
       fill="#3b4332"
       d="M115.806,218.058 C117.664,210.006 124.931,203.789 131.542,199.355 C138.366,208.015 145.076,223.941 149.646,234.688 C138.849,231.434 125.269,223.412 115.806,218.058" />
    <path
       id="path134"
       fill="#1d1919"
       d="M149.646,203.104 C149.646,204.369 148.62,205.395 147.354,205.395 C146.089,205.395 145.062,204.369 145.062,203.104 C145.062,201.839 146.089,200.812 147.354,200.812 C148.62,200.812 149.646,201.839 149.646,203.104" />
    <path
       id="path136"
       fill="#1d1919"
       d="M151.937,213.729 C151.937,214.994 150.911,216.02 149.645,216.02 C148.38,216.02 147.354,214.994 147.354,213.729 C147.354,212.464 148.38,211.437 149.645,211.437 C150.911,211.437 151.937,212.464 151.937,213.729" />
    <path
       id="path3614"
       fill="#000000"
       d="M100.547,63.019 L100.576,63.902 L100.399,70.882 L99.999,73.862 C98.801,76.305 95.924,81.424 94.036,84.337 L93.533,82.608 C95.198,79.757 96.276,77.017 98.855,72.337 C98.834,69.469 98.821,66.6 98.819,63.731 L100.081,63.214 L100.547,63.019 z" />
    <path
       id="path3616"
       fill="#dcd9d8"
       d="M175.542,168.355 L177.663,179.688 L167.876,170.355 L159.82,166.272 L164.017,162.022 L171.292,156.022 L175.542,168.355 z" />
  </g>
  <g
     id="レイヤー_5">
    <path
       id="path3619"
       fill="#dcd9d8"
       d="M49.93,88.515 L50.478,90.811 L45.896,93.728 L45.423,89.709 C47.519,89.648 46.551,89.824 48.342,89.271 C49.802,88.607 49.298,88.908 49.93,88.515 z" />
    <path
       id="path106"
       fill="#231f20"
       d="M172.538,118.295 C164.39,123.529 155.305,129.22 141.955,127.9 C139.103,125.42 138.015,119.902 140.786,116.257 C142.229,118.737 141.323,123.298 145.343,123.984 C152.918,125.28 161.734,119.35 167.183,117.278 C170.561,111.582 166.891,109.487 163.848,105.82 C157.616,98.309 149.258,88.999 149.561,77.754 C152.08,75.928 152.298,80.542 152.659,81.382 C155.913,88.997 164.101,98.735 170.078,105.253 C171.545,106.858 173.961,108.398 174.23,109.459 C175.005,112.545 172.214,116.243 172.538,118.295" />
    <path
       id="path3622"
       fill="#231f20"
       d="M65.127,112.785 C62.573,111.328 61.965,104.908 58.967,104.725 C54.683,104.465 55.464,113.054 55.481,118.077 C52.532,115.399 52.013,107.155 54.18,102.922 C51.711,101.709 50.608,104.259 49.238,105.158 C50.999,92.37 67.944,99.227 65.127,112.785" />
    <path
       id="path3624"
       fill="#1d1919"
       d="M149.646,203.104 C149.646,204.369 148.62,205.395 147.354,205.395 C146.089,205.395 145.062,204.369 145.062,203.104 C145.062,201.839 146.089,200.812 147.354,200.812 C148.62,200.812 149.646,201.839 149.646,203.104" />
    <path
       id="path3626"
       fill="#1d1919"
       d="M151.937,213.729 C151.937,214.994 150.911,216.02 149.645,216.02 C148.38,216.02 147.354,214.994 147.354,213.729 C147.354,212.464 148.38,211.437 149.645,211.437 C150.911,211.437 151.937,212.464 151.937,213.729" />
    <path
       id="path3628"
       fill="#231f20"
       d="M184.153,53.677 L184.153,53.677 L184.153,53.677 L184.153,53.677 L184.153,53.677 C193.25,78.369 190.826,104.345 184.884,129.423 C183.934,132.758 182.556,137.66 180.633,141.667 C179.291,144.464 172.745,153.427 173.251,155.897 C173.772,158.451 178.584,158.817 187.584,162.546 C192.417,163.613 195.417,163.613 199.251,168.603 C198.251,178.897 195.673,186.415 194.379,190.752 C190.054,205.223 185.834,218.599 180.93,231.501 C191.039,226.475 209.926,217.974 216.264,231.519 C218.603,236.512 221.346,244.952 222.558,250.106 C224.269,257.377 220.702,272.659 213.229,275.099 C206.628,277.254 198.925,277.123 190.974,275.525 C190.038,274.747 188.995,273.389 188.266,271.974 C182.589,271.754 177.273,272.279 172.788,274.613 C173.213,278.812 170.372,279.485 167.71,280.35 C165.736,288.176 171.659,298.397 170.241,305.533 C169.23,310.617 162.975,311.403 158.378,312.354 C158.228,315.179 158.579,317.538 158.893,319.928 C157.841,323.801 153.126,326.006 148.659,326.546 C133.96,328.314 111.642,329.108 97.504,324.024 C93.559,314.347 90.451,302.577 87.165,291.526 C73.376,292.999 62.223,285.577 51.71,280.714 C48.069,279.026 43.034,278.097 41.674,275.199 C40.356,272.394 40.895,267.018 40.568,261.939 C39.735,248.968 39.023,236.457 35.597,223.175 C34.059,217.215 31.378,211.957 29.508,206.214 C27.78,200.892 23.705,192.871 22.917,187.563 C21.75,179.697 29.914,172.897 34.914,172.563 C44.604,171.23 43.251,172.23 49.613,170.897 C51.962,169.488 67.779,164.189 68.584,162.546 C70.186,159.29 63.434,149.885 62.271,147.333 C60.431,143.297 59.472,139.868 59.208,135.885 C52.556,134.834 47.514,130.875 44.468,126.412 C39.429,119.024 35.935,105.357 40.294,94.96 C40.636,94.142 42.341,92.532 42.593,91.274 C42.749,89.796 42.723,90.632 42.559,88.766 C43.638,89.968 45.704,89.834 47.079,89.661 C47.516,89.606 47.921,89.401 48.342,89.271 L48.845,89.042 L48.871,89.359 C58.822,83.099 72.03,89.854 71.906,100.502 C76.657,100.375 73.681,94.568 72.821,90.827 C72.021,85.952 72.045,87.292 72.342,80.773 C72.385,79.823 72.587,78.886 72.71,77.943 C73.408,78.295 74.202,78.251 74.954,78.172 C75.765,78.008 75.357,78.112 76.178,77.854 C75.558,80.277 75.419,82.774 75.194,85.254 C74.984,91.305 78.044,96.588 78.278,103.175 C76.642,105.874 71.645,106.207 68.185,106.022 C67.021,100.194 64.982,93.644 58.981,92.987 C50.49,92.058 44.281,99.085 43.896,106.429 C43.439,115.065 50.529,129.379 60.578,128.385 C64.46,128.002 65.413,124.11 69.643,124.15 C71.935,128.724 66.107,130.16 65.507,133.432 C65.351,134.277 65.99,137.579 66.362,139.128 C68.188,146.669 72.256,156.429 76.261,162.17 C81.344,169.453 91.331,170.55 102.074,171.264 C103.993,167.13 111.062,167.47 115.668,168.552 C110.148,166.365 105.016,161.065 100.763,156.374 C95.878,150.992 90.929,145.218 90.679,138.183 C99.911,150.99 107.538,162.175 124.325,167.809 C137.027,172.069 151.863,165.857 161.622,159.003 C165.673,156.154 168.09,151.634 170.969,147.497 C181.74,132.003 186.766,109.888 185.661,88.453 C185.206,79.613 185.226,70.803 182.26,64.855 C181.279,62.045 179.966,59.359 178.466,56.79 L178.75,56.428 C179.227,55.595 179.065,55.993 179.295,55.26 C180.194,55.212 179.468,55.267 181.425,54.771 C181.421,54.773 182.203,54.512 182.319,54.479 L182.162,54.501 C183.558,54.113 182.894,54.388 184.153,53.677 L184.153,53.677 z M129.049,240.573 L129.049,240.573 C114.593,240.462 100.21,242.255 86.007,244.816 C88.893,271.344 93.073,293.645 100.739,317.137 C117.753,322.303 138.264,322.753 153.303,318.091 C150.541,304.833 151.747,288.691 150.134,274.542 C148.917,263.907 149.538,253.207 147.87,242.357 C141.688,240.966 135.347,240.826 129.049,240.573 L129.049,240.573 z M160.493,281.094 C158.329,281.282 156.329,282.189 154.15,282.252 C153.874,288.834 154.798,299.39 155.106,306.295 C159.482,306.301 161.359,305.338 164.625,304.236 C164.994,296.111 162.053,288.594 161.205,281.175 L160.493,281.094 z M71.908,168.602 L71.908,168.602 C61.785,172.595 44.604,176.23 38.917,179.23 C32.251,178.897 29.917,181.23 29.251,187.23 C40.298,210.935 46.221,241.747 47.009,269.739 C59.665,275.658 70.78,284.191 87.953,285.082 C85.966,271.022 84.152,258.478 83.024,245.24 C78.709,243.421 69.542,244.376 65.504,243.729 C65.47,238.863 73.625,242.64 71.651,239.979 C69.776,237.449 67.395,237.586 68.633,233.688 C71.789,234.836 74.625,242.034 73.578,238.695 C68.682,223.086 67.979,226.347 69.531,222.735 C70.409,220.694 72.748,222.587 73.578,227.899 C74.336,232.75 75.931,236.482 77.917,239.562 C94.512,237.303 119.425,235.162 137.38,234.669 C133.43,232.974 128.738,231.37 123.593,228.47 C120.804,226.898 112.012,223.627 111.208,220.978 C109.923,216.756 114.577,214.508 115.373,210.889 C106.996,215.458 105.362,206.51 103.38,200.172 C101.585,194.43 101.017,193.583 100.576,190.272 C99.061,189.549 97.257,199.506 95.716,198.772 C94.551,198.216 89.542,190.272 87.917,188.147 C82.667,182.272 82.417,179.897 78.981,175.495 C77.848,174.688 72.958,168.189 71.908,168.603 L71.908,168.602 z M161.121,241.521 L161.121,241.521 C158.014,241.551 155.277,241.485 152.179,242.523 C152.025,253.917 152.689,265.155 153.559,276.563 C157.934,275.906 160.902,275.468 164.967,274.577 C163.648,263.594 163.81,251.236 161.121,241.522 L161.121,241.521 z M203.091,229.883 L203.091,229.883 C201.373,230.347 202.076,230.038 200.924,230.658 C194.866,234.537 184.195,235.663 179.777,240.358 C181.993,247.733 182.68,257.863 183.594,267.208 C191.161,267.679 200.473,265.125 206.766,267.836 C202.372,269.259 196.671,269.27 192.875,271.344 C195.978,272.843 203.241,272.54 207.978,271.39 C214.484,269.81 218.575,261.841 216.755,253.658 C215.534,248.158 213.359,237.801 211.031,234.283 C209.617,232.307 207.664,230.773 205.305,230.071 C204.595,229.859 203.829,229.946 203.092,229.884 L203.091,229.883 z M172.763,240.483 C168.933,240.642 170.555,240.559 167.895,240.707 C168.827,249.994 171.09,260.243 171.886,269.992 C175.008,270.089 176.675,268.617 179.243,268.122 C179.38,259.564 178.495,247.774 174.372,240.687 L172.763,240.483 z M169.603,159.896 C167.628,162.814 164.571,163.964 162.955,166.337 C174.509,160.734 176.591,187.275 172.062,195.825 C172.762,198.375 175.17,199.352 176.152,201.644 C169.705,213.194 162.544,223.975 155.965,235.389 C160.859,232.343 167.849,234.844 173.607,232.564 C175.713,231.732 177.236,226.913 178.83,223.058 C183.214,212.452 187.816,199.08 189.864,188.959 C190.326,186.653 194.2,174.949 193.917,172.897 C193.414,169.222 192.417,168.603 182.917,165.897 C177.251,162.546 174.477,163.822 169.604,159.897 L169.603,159.896 z M131.93,201.277 L131.929,201.277 C125.319,205.712 118.039,209.881 116.181,217.933 C125.644,223.287 136.676,228.568 147.474,231.823 C142.904,221.075 138.754,209.938 131.93,201.278 L131.93,201.277 z M162.669,197.529 C159.577,198.156 160.869,197.753 158.739,198.542 C158.306,209.29 157.08,223.389 154.215,231.813 C161.049,223.111 166.56,212.979 172.32,203.114 C170.302,199.896 167.654,198.317 164.05,197.565 L162.669,197.529 z M145.968,194.004 L145.968,194.004 C143.38,193.725 141.183,196.98 137.816,195.573 C137.045,196.425 136.344,197.349 135.558,198.182 C142.993,207.142 146.371,219.854 152.114,230.384 C155.195,220.269 154.84,209.188 155.519,198.148 C151.285,198.417 148.936,194.319 145.969,194.004 L145.968,194.004 z M108.862,173.35 C108.214,173.529 107.499,173.549 106.916,173.886 C102.867,176.228 103.909,185.699 104.069,189.412 C104.301,194.524 106.96,199.93 108.114,203.327 C108.656,204.913 108.778,206.595 110.134,206.91 C112.531,207.469 120.436,204.308 122.688,203.079 C127.452,200.482 131.149,196.357 135.195,193.587 C135.247,192.239 135.299,190.893 135.353,189.545 C132.92,188.333 130.109,187.473 126.538,187.317 C128.96,186.098 132.524,186.115 134.731,184.665 C134.753,184.125 134.775,183.587 134.794,183.052 C130.764,182.742 129.228,180.947 126.571,179.494 C122.225,177.119 115.695,174.533 110.081,173.462 L108.862,173.35 z M163.165,171.579 L163.165,171.579 C157.258,172.581 153.167,177.457 147.867,179.78 C148.3,181.025 149.014,182.012 149.069,183.603 C151.42,183.024 154.283,183.42 156.32,184.422 C153.964,184.685 151.351,184.668 149.792,185.79 C149.221,187.442 149.933,189.692 149.553,191.984 C155.145,193.562 161.533,194.402 168.603,194.609 C169.978,192.822 170.446,189.417 170.284,186.042 C170.089,181.973 169.02,173.605 166.505,172.14 C164.761,171.403 165.844,171.723 163.165,171.58 L163.165,171.579 z M81.292,170.271 L81.292,170.271 C78.775,172.827 82.542,176.397 86.792,183.022 C91.017,187.397 91.667,188.022 95.042,194.272 C97.562,189.022 98.758,186.341 99.667,186.397 C99.042,181.147 100.863,176.374 100.592,174.712 C95.402,173.8 84.819,172.721 81.292,170.272 L81.292,170.271 z M141.58,181.772 L141.58,181.772 C140.153,181.799 138.942,182.448 137.757,183.167 C137.481,186.235 138.195,187.239 138.812,190.757 C145.612,193.713 148.771,182.815 141.581,181.772 L141.58,181.772 z M151.681,171.835 L151.681,171.835 C144.853,172.445 136.256,176.687 129.494,173.673 C129.476,174.03 129.01,173.9 128.934,174.192 C133.575,177.819 137.023,178.569 143.34,178.257 C146.189,176.189 148.715,173.772 151.681,171.835 L151.681,171.835 z" />
    <path
       id="path3630"
       fill="#231f20"
       d="M181.356,54.454 C181.77,54.559 181.996,54.531 181.356,54.454 z" />
    <path
       id="path3632"
       fill="#231f20"
       d="M77.368,172.355 C77.368,172.355 70.876,175.355 62.142,178.422 C50.742,181.622 45.742,187.422 42.542,184.355 C38.542,182.355 30.876,179.688 30.876,179.688 L27.542,184.022 C27.542,184.022 35.876,184.355 44.229,189.355 C48.742,186.622 57.342,182.822 57.342,182.822 C57.342,182.822 73.209,177.022 73.209,177.022 C73.209,177.022 80.062,174.355 80.062,174.355 C80.062,174.355 77.368,172.355 77.368,172.355 z" />
    <path
       id="path3634"
       fill="#231f20"
       d="M181.134,167.772 L194.042,169.897 L195.042,172.355 L183.417,170.772 L175.542,168.728 L175.667,166.272 z" />
    <path
       id="path3636"
       fill="#231f20"
       d="M174.367,161.397 L177.542,170.022 L179.667,178.522 L179.917,182.272 L173.042,180.022 L172.792,177.272 L177.542,179.772 L175.792,170.897 L171.292,160.022 L174.367,161.397 z" />
    <path
       id="path4067"
       fill="#231f20"
       d="M136.293,153.603 L143.58,149.535 L149.174,145.891 C151.708,145.309 152.976,145.486 154.428,145.552 L157.394,146.569 L164.088,152.162 L166.715,152.416 L167.224,146.739 L171.546,139.281 L164.766,138.603 L156.546,139.451 L147.309,139.366 C139.493,139.942 131.56,140.362 123.073,140.044 C120.471,140.04 117.053,140.361 113.327,140.807 L111.717,142.247 L113.92,145.044 C115.107,148.051 116.293,149.915 117.48,152.077 L119.429,157.162 L124.344,158.942 C129.042,157.527 132.757,155.598 136.293,153.603 z" />
    <path
       id="path4069"
       fill="#dcd9d8"
       d="M121.123,142.247 L122.988,141.654 L125.7,141.654 L127.31,141.993 C128.046,143.349 128.14,144.36 128.078,146.077 C127.932,147.418 127.864,147.641 127.14,147.984 L124.683,148.01 L121.971,145.552 L120.276,142.925 z" />
    <path
       id="path4071"
       fill="#dcd9d8"
       d="M129.598,141.654 C128.377,141.733 129.335,143.99 129.259,145.213 C129.498,147.006 129.88,147.366 130.276,147.586 L132.733,147.446 L135.53,146.739 C136.116,146.275 135.642,144.324 135.799,143.144 C135.313,141.986 135.363,141.689 135.191,141.315 C130.035,141.691 131.212,141.561 129.598,141.654 z" />
    <path
       id="path4073"
       fill="#dcd9d8"
       d="M136.83,141.457 L136.928,143.684 C136.988,144.544 137.291,145.398 137.493,145.692 C138.289,145.55 138.648,145.863 139.767,145.722 C141.628,145.439 142.36,145.157 143.496,144.874 C143.849,144.361 143.755,142.702 143.49,141.17 L139.682,141.23 z" />
    <path
       id="path4075"
       fill="#dcd9d8"
       d="M144.965,141.174 C145.181,142.018 144.819,143.302 145.406,144.304 L147.078,144.334 C148.555,144.016 149.035,143.287 150.654,142.986 L151.688,142.951 C151.702,142.153 151.879,141.922 151.724,140.969 L147.507,141.004 z" />
    <path
       id="path4077"
       fill="#dcd9d8"
       d="M152.902,141.061 C152.643,142.04 152.844,142.205 152.904,143.025 C154.895,142.696 155.82,143.318 156.238,143.46 C157.953,143.621 157.595,143.754 158.037,144.052 L158.822,143.233 L158.937,140.863 L156.8,140.807 C155.857,140.844 156.033,140.732 152.902,141.061 z" />
    <path
       id="path4083"
       fill="#dcd9d8"
       d="M160.274,141.104 L160.104,142.749 L159.82,144.393 L161.352,145.414 L163.904,145.357 L164.017,141.274 z" />
    <path
       id="path3645"
       fill="#231f20"
       d="M150.943,76.26 C152.286,76.532 151.524,76.377 153.229,76.728 L153.241,76.28 C154.15,76.268 155.059,76.266 155.968,76.261 C161.079,76.23 166.434,76.508 171.546,76.508 C180.171,76.508 185.63,76.645 185.63,76.645 C185.63,76.645 185.695,87.405 184.369,91.822 C181.942,99.136 171.292,101.022 164.017,99.136 C157.542,93.728 157.342,93.728 154.342,88.822 L154.069,87.622 L152.773,87.622 L146.01,89.354 L145.943,89.822 C144.52,96.655 143.511,100.019 139.179,103.312 C130.917,107.222 121.784,108.822 110.743,106.422 C105.673,104.822 104.323,104.249 100.576,99.136 C98.488,96.039 97.135,92.489 95.945,88.969 L81.174,94.691 L67.247,101.436 L65.504,97.835 L79.504,91.055 L79.653,90.99 L94.787,85.371 C94.764,85.296 94.779,85.346 94.743,85.222 C94.743,85.222 105.673,80.422 120.276,77.746 C132.342,76.26 144.965,76.28 144.965,76.28 C145.048,76.518 145.126,76.758 145.193,77.001 C147.052,76.47 149.021,76.381 150.943,76.26 z M150.742,79.622 C149.122,79.662 147.485,79.75 145.902,80.119 C146.428,83.685 146.25,81.72 146.296,86.023 C148.096,85.369 149.944,84.855 151.787,84.337 C153.34,84.378 152.745,84.313 153.581,84.422 C153.237,81.512 153.368,83.076 153.239,79.726 C152.417,79.595 151.572,79.622 150.742,79.622 z" />
    <path
       id="path3647"
       fill="#2b221f"
       d="M155.48,128.649 C155.48,128.649 152.247,124.899 146.937,124.472 C141.348,124.023 137.124,125.598 133.934,127.223 C130.312,129.223 128.731,132.873 125.999,135.097 C121.356,138.123 114.124,138.978 111.249,138.247 C107.687,136.79 106.064,134.203 105.439,131.516 C104.917,127.022 110.271,120.554 110.271,120.554 C110.271,120.554 100.995,125.541 101.502,132.837 C101.792,137.013 103.916,140.705 105.814,142.059 C109.176,144.458 116.16,144.927 121.166,145.167 C126.698,145.576 132.125,145.189 138.712,144.505 C144.771,143.855 147.142,143.855 151.357,140.927 C154.387,138.223 156.1,133.307 156.1,133.307 C156.1,133.307 155.031,133.811 158.998,137.594 C162.949,141.363 162.554,140.68 166.242,142.045 C172.696,142.181 174.619,140.679 175.858,139.723 C180.469,134.124 181.321,132.923 181.752,126.628 C182.182,120.333 177.762,116.274 177.762,116.274 C177.762,116.274 180.47,121.972 178.757,126.42 C177.583,129.469 175.859,131.394 173.251,132.326 C169.205,131.121 169.812,129.242 167.708,125.386 C164.549,121.941 162.819,122.246 159.863,123.981 C155.574,126.616 155.48,128.649 155.48,128.649 z" />
  </g>
  <g
     id="レイヤー_7">
    <path
       id="path3650"
       fill="#28301f"
       d="M80.062,63.272 L56.292,76.645 L39.292,90.022 L35.039,86.823 L31.542,77.33 L38.292,63.772 L91.77,21.522 L110.542,9.022 L153.792,1.522 L181.042,11.772 L195.542,29.522 L190.042,48.522 L171.546,43.272 L147.354,43.772 L113.292,50.022 L80.062,63.272 z" />
    <path
       id="path3652"
       fill="#a8941c"
       d="M38.542,90.022 L42.292,96.522 L66.542,83.272 L101.792,64.522 L126.542,56.772 L152.773,52.478 L181.292,54.022 L190.042,55.395 L190.042,48.272 L164.017,42.772 L126.042,47.022 L93.533,57.522 L62.042,73.022 L42.042,88.022 L38.542,90.022 z" />
    <path
       id="path3654"
       fill="#3b4332"
       d="M80.062,30.485 L51.63,54.789 L38.542,62.545 L31.542,77.33 L34.342,84.828 L40.285,91.697 L49.238,83.222 C49.238,83.222 44.914,74.356 44.228,71.889 C43.542,69.422 48.542,64.422 52.542,60.422 C56.542,56.422 64.142,52.222 68.542,50.022 C72.942,47.822 82.831,39.322 84.142,36.822 C85.454,34.322 93.533,22.022 93.533,22.022 L80.062,30.485 z" />
    <path
       id="path3656"
       fill="#231f20"
       d="M162.29,19.814 C165.063,22.022 167.563,24.422 167.357,31.971 C165.943,39.422 163.813,42.772 163.813,42.772 L147.493,42.772 C147.493,42.772 139.063,45.31 134.978,46.086 C132.146,40.88 132.146,40.88 130.337,35.471 C128.374,25.009 132.691,21.876 140.313,17.679 C140.313,17.679 156.605,13.622 162.29,19.814 z" />
    <path
       id="path3658"
       fill="#a89432"
       d="M161.742,22.022 C164.587,25.273 165.688,27.371 164.708,33.621 C162.688,41.621 160.688,46.886 160.688,46.886 L148.757,47.482 C148.757,47.482 142.95,46.717 139.179,47.422 C136.83,42.772 134.126,40.422 133.06,35.755 C130.959,26.565 135.379,23.422 140.461,20.222 C145.249,18.222 155.907,17.422 161.742,22.022 z" />
  </g>
  <g
     id="レイヤー_3">
    <path
       id="path3661"
       fill="#231f20"
       d="M154.601,0 C162.876,0.355 176.616,7.491 182.724,11.333 C190.209,16.041 195.8,25.416 197.041,30.355 C198.281,35.294 196.503,40.022 192.542,47.355 C191.209,55.1 190.542,58.688 190.542,58.688 L72.02,83.395 C72.02,83.395 64.061,86.626 59.468,90.324 C53.396,90.272 47.292,94.772 47.292,94.772 L40.876,98.022 C40.876,98.022 36.209,90.688 33.209,86.495 C26.876,81.022 27.086,80.693 30.209,73.022 C36.209,59.688 36.082,61.766 44.229,55.1 C52.375,48.433 66.603,38.893 70.209,35.355 C81.542,25.962 95.876,14.022 104.672,8.688 C116.3,1.638 141.209,0 154.601,0 z M149.646,4.355 C138.578,5.13 132.368,6.022 113.542,10.688 C100.677,18.986 98.184,20.748 89.209,28.022 C82.382,33.555 78.053,36.244 68.876,44.022 C62.232,49.652 47.013,58.811 38.318,68.022 C36.247,76.398 28.829,78.997 37.651,86.003 C41.694,92.994 41.68,92.251 41.68,92.251 C41.68,92.251 44.778,89.703 49.238,88.272 C52.042,87.522 55.042,86.772 57.836,86.656 C65.542,81.022 61.497,84.138 70.353,79.746 C79.209,75.355 186.677,55.765 186.677,55.765 C186.677,55.765 188.585,51.622 189.209,45.688 C192.876,39.022 193.106,35.975 192.711,31.601 C190.209,23.022 187.3,18.968 179.917,14.688 C171.292,9.688 163.912,6.797 149.646,4.355 z" />
    <path
       id="path3663"
       fill="#191614"
       d="M65.442,82.272 C65.442,82.272 89.289,84.651 100.576,84.337 C111.864,84.022 136.573,85.587 149.646,84.337 C162.72,83.087 167.943,81.591 177.542,79.355 C187.142,77.119 190.507,75.224 195.042,70.688 C197.707,65.438 197.707,63.772 195.042,60.022 C193.292,56.772 187.892,53.972 187.142,53.677 C181.746,51.55 177.661,50.022 166.792,50.022 C155.924,50.022 145.826,50.556 135.833,52.478 C109.839,58.65 100.576,62.772 90.792,67.772 C81.854,71.022 65.442,82.272 65.442,82.272 z" />
    <path
       id="path3665"
       fill="#231f20"
       d="M190.042,47.272 L189.292,50.022 C189.292,50.022 185.366,47.668 173.402,45.644 C161.438,43.621 156.522,43.848 147.354,45.022 C138.185,46.196 119.961,49.532 106.991,54.077 C94.021,58.621 77.572,64.998 65.024,72.896 C52.174,80.171 40.396,93.478 40.896,93.728 C41.396,93.978 38.636,92.868 38.636,91.368 C50.136,80.618 57.824,74.148 65.504,69.391 C73.184,64.634 93.164,55.302 106.093,51.211 C119.021,47.121 131.854,43.772 147.354,41.772 C160.09,40.128 162.932,40.959 173.685,42.623 C184.438,44.287 190.042,47.272 190.042,47.272 z" />
    <path
       id="path3667"
       fill="#dcd9d8"
       d="M99.096,69.488 C99.096,69.488 95.258,70.523 89.338,73.625 C83.419,76.728 80.062,79.286 80.062,79.286 C80.062,79.286 93.705,80.103 99.096,80.429 C104.486,80.756 107.459,81.082 111.799,81.082 C116.202,81.572 115.743,81.422 115.743,81.422 L99.096,69.488 z" />
    <path
       id="path3669"
       fill="#dcd9d8"
       d="M103.476,67.509 L119.342,81.444 L125.143,81.444 L109.072,65.622 L103.476,67.509 z" />
  </g>
  <g
     id="レイヤー_4">
    <path
       id="path3672"
       fill="#231f20"
       d="M122.98,146.397 L111.417,144.334 L95.716,144.052 L84.417,146.183 L77.917,147.397 L75.896,157.772 L81.542,163.547 L97.16,162.639 L122.567,157.919 L130.917,152.647 L122.98,146.397 z" />
    <path
       id="path3674"
       fill="#441d00"
       d="M123.542,147.397 L126.685,150.053 L127.042,154.147 L123.292,154.979 L122.209,150.397 L118.539,146.668 L123.542,147.397 z" />
    <path
       id="path3676"
       fill="#441d00"
       d="M113.616,146.183 L117.292,148.01 L119.405,151.421 L120.792,156.022 L113.917,157.772 L114.292,152.772 L111.938,148.802 L108.355,145.759 L113.616,146.183 z" />
    <path
       id="path3678"
       fill="#441d00"
       d="M101.605,145.759 L104.672,146.183 L109.667,149.897 L112.292,154.647 L110.542,158.397 L103.167,160.022 L103.476,153.772 L100.303,148.996 L95.667,145.759 L101.605,145.759 z" />
    <path
       id="path3680"
       fill="#441d00"
       d="M91.853,146.668 L97.667,150.147 L101.23,154.334 L100.897,160.022 L93.533,161.228 L93.59,155.106 L89.786,150.257 L85.982,147.832 L91.853,146.668 z" />
    <path
       id="path3682"
       fill="#990000"
       d="M77.917,147.397 L82.989,149.397 L88.35,156.36 L87.634,163.326 L81.192,163.547 L75.506,161.067 L73.417,156.022 L73.366,148.503 L77.917,147.397 z" />
    <path
       id="path3684"
       fill="#555555"
       d="M81.199,146.834 L86.861,151.965 L89.474,156.887 L89.646,162.897 L87.417,163.022 L86.388,157.864 L85.062,153.647 L82.146,149.772 L77.917,147.428 L81.199,146.834 z" />
    <path
       id="path3686"
       fill="#231f20"
       d="M99.214,210.708 C102.972,210.146 104.955,214.076 104.846,216.199 C104.7,219.881 102.53,221.907 99.214,222.221 C95.943,222.379 93.248,219.584 93.248,216.389 C93.248,213.193 95.455,211.271 99.214,210.708 z" />
    <path
       id="path3688"
       fill="#d11d00"
       d="M94.77,216.555 C94.594,213.844 96.635,211.979 99.154,211.916 C102.258,211.916 103.036,213.491 103.357,216.094 C103.357,218.428 102.176,219.79 99.579,220.386 C97.238,220.835 94.945,219.267 94.77,216.555 z" />
    <path
       id="path3690"
       fill="#ef9494"
       d="M97.749,214.938 C96.924,214.938 96.387,214.834 96.387,214.033 C96.387,213.232 96.967,212.725 97.792,212.725 C98.617,212.725 99.239,212.988 99.239,213.789 C99.239,214.59 98.574,214.938 97.749,214.938 z" />
    <path
       id="path3692"
       fill="#231f20"
       d="M93.248,203.233 L93.738,208.894 L97.963,211.668 L99.544,211.479 L103.669,209.272 L103.867,202.209 L102.007,201.952 L97.525,202.209 L93.248,203.233 z" />
    <path
       id="path3694"
       fill="#ffffff"
       d="M94.77,204.425 L95.153,208.341 L95.749,208.979 L95.408,204.425 L94.77,204.425 z" />
    <path
       id="path3696"
       fill="#599f76"
       d="M96.898,204.127 L97.196,208.298 L98.336,210.627 L99.472,210.579 L100.473,207.992 L100.558,203.957 L98.813,203.872 L96.898,204.127 z" />
    <path
       id="path3698"
       fill="#ffffff"
       d="M101.878,203.872 L101.835,208.298 L102.261,207.992 L102.516,203.872 L101.878,203.872 z" />
    <path
       id="path3700"
       fill="#231f20"
       d="M88.439,211.798 C92.197,211.235 94.18,215.165 94.071,217.289 C93.925,220.97 91.755,222.997 88.439,223.311 C85.168,223.468 82.473,220.673 82.473,217.478 C82.473,214.283 84.68,212.36 88.439,211.798 z" />
    <path
       id="path3702"
       fill="#f4b646"
       d="M84.102,217.292 C83.926,214.58 85.811,213.056 88.33,212.993 C91.451,213.266 92.619,214.109 92.529,216.951 C92.437,219.848 91.993,220.824 88.658,221.172 C84.931,221.56 84.277,220.003 84.102,217.292 z" />
    <path
       id="path3704"
       fill="#f7e977"
       d="M87.165,216.362 C86.34,216.362 85.671,215.713 85.671,214.912 C85.671,214.111 86.256,213.759 87.081,213.759 C87.906,213.759 88.33,214.15 88.33,214.951 C88.33,215.752 87.99,216.362 87.165,216.362 z" />
    <path
       id="path3706"
       fill="#231f20"
       d="M82.473,204.352 L82.963,209.983 L87.188,212.757 L88.769,212.568 L92.894,210.361 L93.092,203.298 L91.232,203.041 L86.75,203.298 L82.473,204.352 z" />
    <path
       id="path3708"
       fill="#ffffff"
       d="M83.846,205.502 L84.272,209.569 L84.801,210.079 L84.493,205.289 L83.846,205.502 z" />
    <path
       id="path3710"
       fill="#599f76"
       d="M86.102,204.991 L86.315,209.569 L87.561,211.716 L88.697,211.668 L89.72,209.569 L89.933,204.693 L88.017,204.693 L86.102,204.991 z" />
    <path
       id="path3712"
       fill="#ffffff"
       d="M91.082,205.137 L90.997,210.409 L91.55,209.521 L91.678,205.137 L91.082,205.137 z" />
    <path
       id="path3714"
       fill="#231f20"
       d="M77.778,212.928 C81.536,212.366 83.52,216.296 83.411,218.419 C83.265,222.101 81.095,224.127 77.778,224.441 C74.507,224.599 71.813,221.804 71.813,218.609 C71.813,215.413 74.02,213.491 77.778,212.928 z" />
    <path
       id="path3716"
       fill="#3465a4"
       d="M73.591,218.537 C73.415,215.826 75.073,214.429 77.592,214.366 C80.696,214.366 81.683,215.525 81.593,218.367 C81.501,221.264 81.193,221.984 77.96,222.309 C74.123,222.031 73.767,221.249 73.591,218.537 z" />
    <path
       id="path3718"
       fill="#7fa7d0"
       d="M76.443,217.643 C75.618,217.643 75.123,217.21 75.123,216.409 C75.123,215.608 75.642,215.005 76.467,215.005 C77.291,215.005 77.96,215.654 77.96,216.455 C77.96,217.256 77.268,217.643 76.443,217.643 z" />
    <path
       id="path3720"
       fill="#231f20"
       d="M71.751,205.712 L72.302,211.114 L76.527,213.888 L78.109,213.699 L82.234,211.492 L82.431,204.428 L80.572,204.172 L76.09,204.428 L71.751,205.712 z" />
    <path
       id="path3722"
       fill="#ffffff"
       d="M73.208,206.535 L73.591,210.388 L74.102,210.699 L73.931,206.237 L73.208,206.535 z" />
    <path
       id="path3724"
       fill="#599f76"
       d="M75.336,206.237 L75.716,211.231 L76.901,212.846 L78.037,212.799 L79.124,211.231 L79.359,205.854 L77.379,205.811 L75.336,206.237 z" />
    <path
       id="path3726"
       fill="#ffffff"
       d="M80.718,206.502 L80.505,211.922 L81.059,211.39 L81.442,206.502 L80.718,206.502 z" />
  </g>
</svg>
