<svg xmlns="http://www.w3.org/2000/svg" id="a5d4bd11-ea83-4f1b-b38b-cbbd6c05ee6b" data-name="Layer 1" viewBox="0 0 680.3 529.27"><defs><style>.ad1a53bf-6407-43a9-a0e8-75e2c9206bc6{fill:#466bb0;opacity:.1}.af96df7a-b5bd-4e9d-8295-38a857b58246{opacity:.1}.a8378e3e-8852-4448-b0a7-533ac5997d59,.b1b6643f-d4a0-445a-91f7-f9c0a7565fb9,.b84c1c4e-e88e-4d0b-92a4-d3d36ccb9538,.e1e0e589-46ed-4f37-91ca-123a2572c4f4,.e6422589-0ef6-4b9b-b2d0-ecb49cc2a2da,.ea23bb60-f921-429e-81a9-d4a9570237d3{fill:none}.e1e0e589-46ed-4f37-91ca-123a2572c4f4{stroke:#466bb0;stroke-dasharray:10.04 10.04}.b1b6643f-d4a0-445a-91f7-f9c0a7565fb9,.b84c1c4e-e88e-4d0b-92a4-d3d36ccb9538,.e1e0e589-46ed-4f37-91ca-123a2572c4f4,.e6422589-0ef6-4b9b-b2d0-ecb49cc2a2da{stroke-linejoin:round}.a3f53c14-1b34-48b9-b61c-038a78a4934e,.a50e8b3b-8edb-4259-99e6-cae994f72ab7,.ac040713-f726-4fb8-8a9b-ac1e7497a8c6,.ae5c0051-7034-4531-9f20-3adc27a61b6d,.ef04e8bf-d58e-4d2d-b6a1-806e46769f92,.f8d41e77-e610-4ef3-a2a9-b322154d143e{font-size:12px}.a50e8b3b-8edb-4259-99e6-cae994f72ab7{font-family:GoogleSansDisplay-Bold,Google Sans Display;font-weight:700}.a9ee65b4-1afb-4e84-84fe-0b4f6809bfdc{letter-spacing:-.01em}.ed01b0ea-b8a4-4e8a-9a20-d85d571ff161{letter-spacing:.01em}.bd5c4301-0fb9-4630-9feb-c284491adf1c{letter-spacing:0}.a24b1516-d178-49de-a52b-c5ba4d80f094{letter-spacing:-.01em}.fddf903e-31f4-4a4c-972a-145bbdd58fcf{letter-spacing:0}.a194d9e1-ce11-4183-b39e-c95dfca4012c,.a3f53c14-1b34-48b9-b61c-038a78a4934e,.ac040713-f726-4fb8-8a9b-ac1e7497a8c6,.ad1c5e40-7ad0-40ac-b717-360843ab4fdf,.ae5c0051-7034-4531-9f20-3adc27a61b6d,.ef04e8bf-d58e-4d2d-b6a1-806e46769f92,.f8d41e77-e610-4ef3-a2a9-b322154d143e{font-family:GoogleSansDisplay-Regular,Google Sans Display}.ebcd21f8-01ab-48f0-a44b-4a2d7322aacb{letter-spacing:-.03em}.ecd94c99-5924-4ad5-8b34-5117c0498799{letter-spacing:0}.b1536109-4377-443f-b48a-3e52fd1a4280,.ea107863-84ff-4a9e-9d1c-ce19a85f7c16{letter-spacing:-.02em}.a3f53c14-1b34-48b9-b61c-038a78a4934e,.b35d8474-70d0-4492-9953-2410313b1681,.f8d41e77-e610-4ef3-a2a9-b322154d143e{letter-spacing:-.01em}.fa474b24-151f-4c66-8aa1-e93f46805c34{letter-spacing:0}.f6d8f147-bfb8-4f7c-becd-fb5e449dc022{letter-spacing:-.03em}.b6298a0e-c0c3-4b39-a6d7-9f4e74c161d7{fill:#e5e5e4}.a0fa16dc-ab89-47ac-ac78-3adad8eadcb8{fill:#fff}.a194d9e1-ce11-4183-b39e-c95dfca4012c,.ad1c5e40-7ad0-40ac-b717-360843ab4fdf{font-size:14px}.b6d64db4-895b-4694-9cb1-ae38d6485ccb{letter-spacing:.02em}.b56ca912-9694-407e-9243-e3eb5564fb77,.bf1b257c-2002-466d-a1e9-cca63abfc181{letter-spacing:0}.fb488d31-4385-467c-8508-6009018e0b66{fill:#767576}.a8378e3e-8852-4448-b0a7-533ac5997d59,.e6422589-0ef6-4b9b-b2d0-ecb49cc2a2da{stroke:#fff}.a8378e3e-8852-4448-b0a7-533ac5997d59,.b84c1c4e-e88e-4d0b-92a4-d3d36ccb9538,.e6422589-0ef6-4b9b-b2d0-ecb49cc2a2da,.ea23bb60-f921-429e-81a9-d4a9570237d3{stroke-width:2px}.a8378e3e-8852-4448-b0a7-533ac5997d59,.b84c1c4e-e88e-4d0b-92a4-d3d36ccb9538{stroke-linecap:round}.a8378e3e-8852-4448-b0a7-533ac5997d59,.bc9229db-6bc2-472b-ba12-df57a8e92f6a,.ea23bb60-f921-429e-81a9-d4a9570237d3{stroke-miterlimit:10}.b1b6643f-d4a0-445a-91f7-f9c0a7565fb9{stroke:#b14d9d;stroke-width:3px}.a649e924-12ba-4b37-ae63-406d7dbbb238{letter-spacing:-.03em}.b594eed3-356f-4705-a624-9325ea26b03e{letter-spacing:-.01em}.ea23bb60-f921-429e-81a9-d4a9570237d3{stroke:#00a14b}.a211d2ef-7064-4f9e-949f-03648b4f5470{fill:#00a14b}.b84c1c4e-e88e-4d0b-92a4-d3d36ccb9538{stroke:#486baf;stroke-dasharray:6 12}.ec86416d-1fdb-4eee-a491-a1302dfa82c1{fill:#486baf}.b3e1340e-f528-401a-8ff5-05fd641a37d4{letter-spacing:-.01em}.b947a67e-4a19-4d24-b649-ab578cb2a8cd{letter-spacing:.02em}.b7e5ffef-a6fb-4e8c-91a4-862eb610a6b6{letter-spacing:.01em}.eca5b081-ba4e-475a-8ed1-59a4a5c0bd82{letter-spacing:-.02em}.ffbc226c-f34d-477a-8143-9f33430b925a{letter-spacing:.01em}.ba35b2ef-194e-44d8-be72-817e663c6b8c{letter-spacing:-.02em}.af96df7a-b5bd-4e9d-8295-38a857b58246{fill:#009345}.bc9229db-6bc2-472b-ba12-df57a8e92f6a{fill:#e4e4e3;stroke:#777678}.a194d9e1-ce11-4183-b39e-c95dfca4012c,.ae5c0051-7034-4531-9f20-3adc27a61b6d,.ef04e8bf-d58e-4d2d-b6a1-806e46769f92,.f8d41e77-e610-4ef3-a2a9-b322154d143e{isolation:isolate}.beb65b84-f466-4c00-b06b-d06a0806784e{letter-spacing:0}.f102232a-2480-4ce3-95c9-869377e240bf{letter-spacing:.01em}.a4c01fbf-02f0-453f-b9ed-de6f27197e41{letter-spacing:-.01em}.b6e1dd89-b57c-4efc-a566-447065a1ebba{fill:#486bae}.ef04e8bf-d58e-4d2d-b6a1-806e46769f92{letter-spacing:-.02em}</style></defs><title>arch</title><rect width="549.99" height="96.23" x="68.01" y="360.12" class="ad1a53bf-6407-43a9-a0e8-75e2c9206bc6" rx="9"/><rect width="580.5" height="512.88" x="49.9" y="15.88" class="e1e0e589-46ed-4f37-91ca-123a2572c4f4" rx="10"/><text class="a50e8b3b-8edb-4259-99e6-cae994f72ab7" transform="translate(49.9 10.3)">I<tspan x="3.52" y="0" class="a9ee65b4-1afb-4e84-84fe-0b4f6809bfdc">s</tspan><tspan x="9.38" y="0" class="ed01b0ea-b8a4-4e8a-9a20-d85d571ff161">t</tspan><tspan x="14.36" y="0" class="a9ee65b4-1afb-4e84-84fe-0b4f6809bfdc">i</tspan><tspan x="17.56" y="0" class="bd5c4301-0fb9-4630-9feb-c284491adf1c">o </tspan><tspan x="27.46" y="0" class="a24b1516-d178-49de-a52b-c5ba4d80f094">M</tspan><tspan x="38.08" y="0" class="fddf903e-31f4-4a4c-972a-145bbdd58fcf">e</tspan><tspan x="45" y="0" class="bd5c4301-0fb9-4630-9feb-c284491adf1c">sh</tspan></text><text class="ac040713-f726-4fb8-8a9b-ac1e7497a8c6" transform="translate(5.53 204.67)">I<tspan x="2.93" y="0" class="a9ee65b4-1afb-4e84-84fe-0b4f6809bfdc">n</tspan><tspan x="9.52" y="0">g</tspan><tspan x="16.57" y="0" class="ebcd21f8-01ab-48f0-a44b-4a2d7322aacb">r</tspan><tspan x="20.6" y="0" class="ed01b0ea-b8a4-4e8a-9a20-d85d571ff161">e</tspan><tspan x="27.26" y="0" class="ecd94c99-5924-4ad5-8b34-5117c0498799">ss</tspan><tspan x="3.11" y="14.4">t</tspan><tspan x="7.41" y="14.4" class="b1536109-4377-443f-b48a-3e52fd1a4280">r</tspan><tspan x="11.56" y="14.4" class="a24b1516-d178-49de-a52b-c5ba4d80f094">a</tspan><tspan x="17.71" y="14.4" class="ea107863-84ff-4a9e-9d1c-ce19a85f7c16">f</tspan><tspan x="21.91" y="14.4" class="b35d8474-70d0-4492-9953-2410313b1681">f</tspan><tspan x="26.23" y="14.4" class="fa474b24-151f-4c66-8aa1-e93f46805c34">i</tspan><tspan x="28.85" y="14.4">c</tspan></text><text class="ac040713-f726-4fb8-8a9b-ac1e7497a8c6" transform="translate(634.62 204.67)"><tspan class="b35d8474-70d0-4492-9953-2410313b1681">E</tspan><tspan x="6.48" y="0" class="a9ee65b4-1afb-4e84-84fe-0b4f6809bfdc">n</tspan><tspan x="13.07" y="0">g</tspan><tspan x="20.12" y="0" class="f6d8f147-bfb8-4f7c-becd-fb5e449dc022">r</tspan><tspan x="24.16" y="0" class="fddf903e-31f4-4a4c-972a-145bbdd58fcf">e</tspan><tspan x="30.82" y="0">ss</tspan><tspan x="4.89" y="14.4">t</tspan><tspan x="9.19" y="14.4" class="b1536109-4377-443f-b48a-3e52fd1a4280">r</tspan><tspan x="13.34" y="14.4" class="a24b1516-d178-49de-a52b-c5ba4d80f094">a</tspan><tspan x="19.48" y="14.4" class="ea107863-84ff-4a9e-9d1c-ce19a85f7c16">f</tspan><tspan x="23.68" y="14.4" class="b35d8474-70d0-4492-9953-2410313b1681">f</tspan><tspan x="28" y="14.4" class="fa474b24-151f-4c66-8aa1-e93f46805c34">i</tspan><tspan x="30.63" y="14.4">c</tspan></text><rect width="136.06" height="136.06" x="120.77" y="84.88" class="b6298a0e-c0c3-4b39-a6d7-9f4e74c161d7" rx="3"/><rect width="136.06" height="136.06" x="115.06" y="79.16" class="b6298a0e-c0c3-4b39-a6d7-9f4e74c161d7" rx="3"/><rect width="117" height="40.35" x="124.59" y="86.74" class="a0fa16dc-ab89-47ac-ac78-3adad8eadcb8" rx="3"/><text class="ad1c5e40-7ad0-40ac-b717-360843ab4fdf" transform="translate(176.41 111.43)">Se<tspan x="15.53" y="0" class="b6d64db4-895b-4694-9cb1-ae38d6485ccb">r</tspan><tspan x="20.89" y="0">v</tspan><tspan x="27.92" y="0" class="bf1b257c-2002-466d-a1e9-cca63abfc181">ic</tspan><tspan x="38.39" y="0" class="b56ca912-9694-407e-9243-e3eb5564fb77">e</tspan><tspan x="46.09" y="0" class="f6d8f147-bfb8-4f7c-becd-fb5e449dc022"> </tspan><tspan x="48.92" y="0">A</tspan></text><circle cx="151.04" cy="106.92" r="18" class="fb488d31-4385-467c-8508-6009018e0b66"/><rect width="12.79" height="12.79" x="144.65" y="100.4" class="e6422589-0ef6-4b9b-b2d0-ecb49cc2a2da"/><line x1="147.02" x2="147.02" y1="100.4" y2="97.33" class="a8378e3e-8852-4448-b0a7-533ac5997d59"/><line x1="151.04" x2="151.04" y1="100.4" y2="97.33" class="a8378e3e-8852-4448-b0a7-533ac5997d59"/><line x1="155.07" x2="155.07" y1="100.4" y2="97.33" class="a8378e3e-8852-4448-b0a7-533ac5997d59"/><line x1="147.02" x2="147.02" y1="116.51" y2="113.43" class="a8378e3e-8852-4448-b0a7-533ac5997d59"/><line x1="151.04" x2="151.04" y1="116.51" y2="113.43" class="a8378e3e-8852-4448-b0a7-533ac5997d59"/><line x1="155.07" x2="155.07" y1="116.51" y2="113.43" class="a8378e3e-8852-4448-b0a7-533ac5997d59"/><line x1="144.53" x2="141.45" y1="110.94" y2="110.94" class="a8378e3e-8852-4448-b0a7-533ac5997d59"/><line x1="144.53" x2="141.45" y1="106.92" y2="106.92" class="a8378e3e-8852-4448-b0a7-533ac5997d59"/><line x1="144.53" x2="141.45" y1="102.89" y2="102.89" class="a8378e3e-8852-4448-b0a7-533ac5997d59"/><line x1="160.64" x2="157.56" y1="110.94" y2="110.94" class="a8378e3e-8852-4448-b0a7-533ac5997d59"/><line x1="160.64" x2="157.56" y1="106.92" y2="106.92" class="a8378e3e-8852-4448-b0a7-533ac5997d59"/><line x1="160.64" x2="157.56" y1="102.89" y2="102.89" class="a8378e3e-8852-4448-b0a7-533ac5997d59"/><rect width="5.68" height="5.68" x="148.2" y="103.96" class="a0fa16dc-ab89-47ac-ac78-3adad8eadcb8" rx="2"/><rect width="117" height="39.08" x="124.59" y="164.71" class="a0fa16dc-ab89-47ac-ac78-3adad8eadcb8" rx="3"/><polygon points="164.85 191.9 164.85 176.6 151.59 168.95 138.33 176.6 138.33 191.9 151.59 199.55 164.85 191.9" class="b1b6643f-d4a0-445a-91f7-f9c0a7565fb9"/><text class="ad1c5e40-7ad0-40ac-b717-360843ab4fdf" transform="translate(188.39 188.69)">P<tspan x="8.04" y="0" class="a649e924-12ba-4b37-ae63-406d7dbbb238">r</tspan><tspan x="12.74" y="0" class="b594eed3-356f-4705-a624-9325ea26b03e">o</tspan><tspan x="20.61" y="0">xy</tspan></text><rect width="136.06" height="136.06" x="434.89" y="84.88" class="b6298a0e-c0c3-4b39-a6d7-9f4e74c161d7" rx="3"/><rect width="136.06" height="136.06" x="429.18" y="79.16" class="b6298a0e-c0c3-4b39-a6d7-9f4e74c161d7" rx="3"/><rect width="117" height="40.35" x="438.71" y="86.74" class="a0fa16dc-ab89-47ac-ac78-3adad8eadcb8" rx="3"/><text class="ad1c5e40-7ad0-40ac-b717-360843ab4fdf" transform="translate(490.77 111.43)">Se<tspan x="15.53" y="0" class="b6d64db4-895b-4694-9cb1-ae38d6485ccb">r</tspan><tspan x="20.89" y="0">v</tspan><tspan x="27.92" y="0" class="bf1b257c-2002-466d-a1e9-cca63abfc181">ic</tspan><tspan x="38.39" y="0" class="b56ca912-9694-407e-9243-e3eb5564fb77">e B</tspan></text><circle cx="465.16" cy="106.92" r="18" class="fb488d31-4385-467c-8508-6009018e0b66"/><rect width="12.79" height="12.79" x="458.77" y="100.4" class="e6422589-0ef6-4b9b-b2d0-ecb49cc2a2da"/><line x1="461.14" x2="461.14" y1="100.4" y2="97.33" class="a8378e3e-8852-4448-b0a7-533ac5997d59"/><line x1="465.16" x2="465.16" y1="100.4" y2="97.33" class="a8378e3e-8852-4448-b0a7-533ac5997d59"/><line x1="469.19" x2="469.19" y1="100.4" y2="97.33" class="a8378e3e-8852-4448-b0a7-533ac5997d59"/><line x1="461.14" x2="461.14" y1="116.51" y2="113.43" class="a8378e3e-8852-4448-b0a7-533ac5997d59"/><line x1="465.16" x2="465.16" y1="116.51" y2="113.43" class="a8378e3e-8852-4448-b0a7-533ac5997d59"/><line x1="469.19" x2="469.19" y1="116.51" y2="113.43" class="a8378e3e-8852-4448-b0a7-533ac5997d59"/><line x1="458.65" x2="455.57" y1="110.94" y2="110.94" class="a8378e3e-8852-4448-b0a7-533ac5997d59"/><line x1="458.65" x2="455.57" y1="106.92" y2="106.92" class="a8378e3e-8852-4448-b0a7-533ac5997d59"/><line x1="458.65" x2="455.57" y1="102.89" y2="102.89" class="a8378e3e-8852-4448-b0a7-533ac5997d59"/><line x1="474.76" x2="471.68" y1="110.94" y2="110.94" class="a8378e3e-8852-4448-b0a7-533ac5997d59"/><line x1="474.76" x2="471.68" y1="106.92" y2="106.92" class="a8378e3e-8852-4448-b0a7-533ac5997d59"/><line x1="474.76" x2="471.68" y1="102.89" y2="102.89" class="a8378e3e-8852-4448-b0a7-533ac5997d59"/><rect width="5.68" height="5.68" x="462.32" y="103.96" class="a0fa16dc-ab89-47ac-ac78-3adad8eadcb8" rx="2"/><rect width="117" height="39.08" x="438.71" y="164.71" class="a0fa16dc-ab89-47ac-ac78-3adad8eadcb8" rx="3"/><polygon points="478.97 191.9 478.97 176.6 465.71 168.95 452.45 176.6 452.45 191.9 465.71 199.55 478.97 191.9" class="b1b6643f-d4a0-445a-91f7-f9c0a7565fb9"/><text class="ad1c5e40-7ad0-40ac-b717-360843ab4fdf" transform="translate(502.51 188.69)">P<tspan x="8.04" y="0" class="a649e924-12ba-4b37-ae63-406d7dbbb238">r</tspan><tspan x="12.74" y="0" class="b594eed3-356f-4705-a624-9325ea26b03e">o</tspan><tspan x="20.61" y="0">xy</tspan></text><line x1="151.4" x2="151.4" y1="134.37" y2="164.71" class="ea23bb60-f921-429e-81a9-d4a9570237d3"/><polygon points="146.41 135.83 151.4 127.19 156.38 135.83 146.41 135.83" class="a211d2ef-7064-4f9e-949f-03648b4f5470"/><line x1="224.68" x2="224.68" y1="127.19" y2="157.53" class="ea23bb60-f921-429e-81a9-d4a9570237d3"/><polygon points="219.69 156.07 224.68 164.71 229.66 156.07 219.69 156.07" class="a211d2ef-7064-4f9e-949f-03648b4f5470"/><line x1="241.59" x2="431.53" y1="184.25" y2="184.25" class="ea23bb60-f921-429e-81a9-d4a9570237d3"/><polygon points="430.07 189.23 438.71 184.25 430.07 179.26 430.07 189.23" class="a211d2ef-7064-4f9e-949f-03648b4f5470"/><line x2="117.41" y1="184.25" y2="184.25" class="ea23bb60-f921-429e-81a9-d4a9570237d3"/><polygon points="115.95 189.23 124.59 184.25 115.95 179.26 115.95 189.23" class="a211d2ef-7064-4f9e-949f-03648b4f5470"/><line x1="555.71" x2="673.12" y1="184.25" y2="184.25" class="ea23bb60-f921-429e-81a9-d4a9570237d3"/><polygon points="671.66 189.23 680.3 184.25 671.66 179.26 671.66 189.23" class="a211d2ef-7064-4f9e-949f-03648b4f5470"/><line x1="465.52" x2="465.52" y1="164.71" y2="134.37" class="ea23bb60-f921-429e-81a9-d4a9570237d3"/><polygon points="470.5 135.83 465.52 127.19 460.53 135.83 470.5 135.83" class="a211d2ef-7064-4f9e-949f-03648b4f5470"/><line x1="528.97" x2="528.97" y1="157.53" y2="127.19" class="ea23bb60-f921-429e-81a9-d4a9570237d3"/><polygon points="533.95 156.07 528.97 164.71 523.98 156.07 533.95 156.07" class="a211d2ef-7064-4f9e-949f-03648b4f5470"/><polyline points="340.2 378.31 340.2 333 183.09 333 183.09 210.96" class="b84c1c4e-e88e-4d0b-92a4-d3d36ccb9538"/><polygon points="188.08 212.42 183.09 203.79 178.1 212.42 188.08 212.42" class="ec86416d-1fdb-4eee-a491-a1302dfa82c1"/><polyline points="340.2 333 497.21 333 497.21 210.96" class="b84c1c4e-e88e-4d0b-92a4-d3d36ccb9538"/><polygon points="502.2 212.42 497.21 203.79 492.22 212.42 502.2 212.42" class="ec86416d-1fdb-4eee-a491-a1302dfa82c1"/><text class="ac040713-f726-4fb8-8a9b-ac1e7497a8c6" transform="translate(313.67 297.39)">Di<tspan x="11.11" y="0" class="ed01b0ea-b8a4-4e8a-9a20-d85d571ff161">s</tspan><tspan x="16.73" y="0" class="a9ee65b4-1afb-4e84-84fe-0b4f6809bfdc">c</tspan><tspan x="23.08" y="0" class="b3e1340e-f528-401a-8ff5-05fd641a37d4">ov</tspan><tspan x="35.66" y="0">e</tspan><tspan x="42.26" y="0" class="b947a67e-4a19-4d24-b649-ab578cb2a8cd">r</tspan><tspan x="46.92" y="0" class="bd5c4301-0fb9-4630-9feb-c284491adf1c">y</tspan><tspan x="-10.16" y="14.4" class="b1536109-4377-443f-b48a-3e52fd1a4280">C</tspan><tspan x="-1.54" y="14.4" class="a24b1516-d178-49de-a52b-c5ba4d80f094">onf</tspan><tspan x="16.12" y="14.4" class="a9ee65b4-1afb-4e84-84fe-0b4f6809bfdc">ig</tspan><tspan x="25.74" y="14.4">u</tspan><tspan x="32.39" y="14.4" class="b1536109-4377-443f-b48a-3e52fd1a4280">r</tspan><tspan x="36.54" y="14.4" class="a24b1516-d178-49de-a52b-c5ba4d80f094">a</tspan><tspan x="42.68" y="14.4" class="fddf903e-31f4-4a4c-972a-145bbdd58fcf">t</tspan><tspan x="47.04" y="14.4" class="fa474b24-151f-4c66-8aa1-e93f46805c34">i</tspan><tspan x="49.67" y="14.4" class="b35d8474-70d0-4492-9953-2410313b1681">o</tspan><tspan x="56.47" y="14.4">n</tspan><tspan x="-4.76" y="28.8" class="b1536109-4377-443f-b48a-3e52fd1a4280">C</tspan><tspan x="3.87" y="28.8" class="bd5c4301-0fb9-4630-9feb-c284491adf1c">e</tspan><tspan x="10.47" y="28.8" class="b7e5ffef-a6fb-4e8c-91a4-862eb610a6b6">r</tspan><tspan x="14.98" y="28.8" class="ed01b0ea-b8a4-4e8a-9a20-d85d571ff161">t</tspan><tspan x="19.34" y="28.8">i</tspan><tspan x="22.03" y="28.8" class="b35d8474-70d0-4492-9953-2410313b1681">f</tspan><tspan x="26.35" y="28.8" class="a9ee65b4-1afb-4e84-84fe-0b4f6809bfdc">ic</tspan><tspan x="35.32" y="28.8" class="a24b1516-d178-49de-a52b-c5ba4d80f094">a</tspan><tspan x="41.47" y="28.8" class="eca5b081-ba4e-475a-8ed1-59a4a5c0bd82">t</tspan><tspan x="45.5" y="28.8" class="ed01b0ea-b8a4-4e8a-9a20-d85d571ff161">e</tspan><tspan x="52.16" y="28.8" class="ecd94c99-5924-4ad5-8b34-5117c0498799">s</tspan></text><text class="a3f53c14-1b34-48b9-b61c-038a78a4934e" transform="translate(308.12 176.95)">M<tspan x="10.26" y="0" class="ffbc226c-f34d-477a-8143-9f33430b925a">e</tspan><tspan x="16.92" y="0" class="ecd94c99-5924-4ad5-8b34-5117c0498799">sh t</tspan><tspan x="36.22" y="0" class="b1536109-4377-443f-b48a-3e52fd1a4280">r</tspan><tspan x="40.37" y="0" class="a24b1516-d178-49de-a52b-c5ba4d80f094">a</tspan><tspan x="46.51" y="0" class="ea107863-84ff-4a9e-9d1c-ce19a85f7c16">f</tspan><tspan x="50.71" y="0">f</tspan><tspan x="55.03" y="0" class="fa474b24-151f-4c66-8aa1-e93f46805c34">i</tspan><tspan x="57.66" y="0" class="ecd94c99-5924-4ad5-8b34-5117c0498799">c</tspan></text><text class="ac040713-f726-4fb8-8a9b-ac1e7497a8c6" transform="translate(68.01 355.05)"><tspan class="b1536109-4377-443f-b48a-3e52fd1a4280">C</tspan><tspan x="8.63" y="0" class="a24b1516-d178-49de-a52b-c5ba4d80f094">o</tspan><tspan x="15.43" y="0" class="ba35b2ef-194e-44d8-be72-817e663c6b8c">n</tspan><tspan x="21.78" y="0" class="ecd94c99-5924-4ad5-8b34-5117c0498799">t</tspan><tspan x="26.08" y="0" class="ebcd21f8-01ab-48f0-a44b-4a2d7322aacb">r</tspan><tspan x="30.11" y="0" class="a9ee65b4-1afb-4e84-84fe-0b4f6809bfdc">o</tspan><tspan x="36.97" y="0" class="bd5c4301-0fb9-4630-9feb-c284491adf1c">l </tspan><tspan x="42.26" y="0" class="b35d8474-70d0-4492-9953-2410313b1681">p</tspan><tspan x="49.18" y="0" class="fa474b24-151f-4c66-8aa1-e93f46805c34">l</tspan><tspan x="51.62" y="0">ane</tspan></text><text class="ac040713-f726-4fb8-8a9b-ac1e7497a8c6" transform="translate(69.95 116.19)">D<tspan x="8.42" y="0" class="a24b1516-d178-49de-a52b-c5ba4d80f094">at</tspan><tspan x="18.74" y="0" class="bd5c4301-0fb9-4630-9feb-c284491adf1c">a</tspan><tspan x="-1.93" y="14.4" class="b35d8474-70d0-4492-9953-2410313b1681">p</tspan><tspan x="4.98" y="14.4" class="fa474b24-151f-4c66-8aa1-e93f46805c34">l</tspan><tspan x="7.43" y="14.4">ane</tspan></text><rect width="549.99" height="95.67" x="68.01" y="136.41" class="af96df7a-b5bd-4e9d-8295-38a857b58246" rx="9"/><rect width="378.75" height="59.86" x="150.77" y="378.31" class="bc9229db-6bc2-472b-ba12-df57a8e92f6a" rx="3"/><text class="a194d9e1-ce11-4183-b39e-c95dfca4012c" transform="translate(197.69 412.47)">i<tspan x="3.14" y="0" class="beb65b84-f466-4c00-b06b-d06a0806784e">s</tspan><tspan x="9.55" y="0" class="f102232a-2480-4ce3-95c9-869377e240bf">t</tspan><tspan x="14.63" y="0" class="a4c01fbf-02f0-453f-b9ed-de6f27197e41">i</tspan><tspan x="17.7" y="0">od</tspan></text><rect id="f76371d8-4ae4-4ffc-8ad5-b8258b2232a6" width="27.55" height="27.55" x="165.65" y="394.46" class="b6e1dd89-b57c-4efc-a566-447065a1ebba" data-name="background"/><polygon id="b77b811a-c2ea-4e6f-baa3-015a15ac7039" points="172.47 415.72 186.38 415.72 177.72 418.34 172.47 415.72" class="a0fa16dc-ab89-47ac-ac78-3adad8eadcb8" data-name="hull"/><polygon id="e1eedafc-dcd1-449c-b5a1-39ba24978dde" points="172.47 414.93 177.72 414.14 177.72 404.69 172.47 414.93" class="a0fa16dc-ab89-47ac-ac78-3adad8eadcb8" data-name="mainsail"/><polygon id="fdf38e3d-12bc-46c2-9743-ae3d6479b545" points="178.51 414.14 186.38 414.93 178.51 397.87 178.51 414.14" class="a0fa16dc-ab89-47ac-ac78-3adad8eadcb8" data-name="headsail"/><path d="M514.24,422.44h-74.6a3,3,0,0,1-3-3V397a3.08,3.08,0,0,1,3-3h74.6a3.08,3.08,0,0,1,3,3v22.4A3,3,0,0,1,514.24,422.44Z" class="a0fa16dc-ab89-47ac-ac78-3adad8eadcb8"/><text class="ef04e8bf-d58e-4d2d-b6a1-806e46769f92" transform="translate(460.3 410.95)">G<tspan x="9.55" y="0" class="bd5c4301-0fb9-4630-9feb-c284491adf1c">al</tspan><tspan x="18.32" y="0" class="fa474b24-151f-4c66-8aa1-e93f46805c34">l</tspan><tspan x="20.77" y="0" class="a24b1516-d178-49de-a52b-c5ba4d80f094">e</tspan><tspan x="27.25" y="0" class="ecd94c99-5924-4ad5-8b34-5117c0498799">y</tspan></text><path d="M326.91,422.44h-74.6a3,3,0,0,1-3-3V397a3.08,3.08,0,0,1,3-3h74.6a3.08,3.08,0,0,1,3,3v22.4A3,3,0,0,1,326.91,422.44Z" class="a0fa16dc-ab89-47ac-ac78-3adad8eadcb8"/><text class="ae5c0051-7034-4531-9f20-3adc27a61b6d" transform="translate(278.08 410.95)">Pi<tspan x="9.58" y="0" class="fa474b24-151f-4c66-8aa1-e93f46805c34">l</tspan><tspan x="12.02" y="0" class="b3e1340e-f528-401a-8ff5-05fd641a37d4">o</tspan><tspan x="18.77" y="0">t</tspan></text><path d="M420.58,422.44H346a3,3,0,0,1-3-3V397a3.08,3.08,0,0,1,3-3h74.6a3.08,3.08,0,0,1,3,3v22.4A3,3,0,0,1,420.58,422.44Z" class="a0fa16dc-ab89-47ac-ac78-3adad8eadcb8"/><text class="f8d41e77-e610-4ef3-a2a9-b322154d143e" transform="translate(364.33 410.95)">C<tspan x="8.75" y="0" class="a9ee65b4-1afb-4e84-84fe-0b4f6809bfdc">i</tspan><tspan x="11.38" y="0" class="a24b1516-d178-49de-a52b-c5ba4d80f094">t</tspan><tspan x="15.55" y="0" class="a9ee65b4-1afb-4e84-84fe-0b4f6809bfdc">ad</tspan><tspan x="28.78" y="0" class="bd5c4301-0fb9-4630-9feb-c284491adf1c">el</tspan></text></svg>