<?xml version="1.0" standalone="no"?>
<!DOCTYPE svg PUBLIC "-//W3C//DTD SVG 1.1//EN"
  "http://www.w3.org/Graphics/SVG/1.1/DTD/svg11.dtd">
<svg version="1.1" xmlns="http://www.w3.org/2000/svg" width="896" height="532" viewBox="-992 -32.5 1792 1064" id="ccdiagram"><defs><style type="text/css">@import url(&#x27;https://fonts.googleapis.com/css?family=Open+Sans:400,700&#x27;);</style></defs><g><filter id="dropshadow" height="130%"><feGaussianBlur in="SourceAlpha" stdDeviation="3"></feGaussianBlur><feOffset dx="3" dy="6" result="offsetblur"></feOffset><feComponentTransfer><feFuncA type="linear" slope="0.4"></feFuncA></feComponentTransfer><feMerge><feMergeNode></feMergeNode><feMergeNode in="SourceGraphic"></feMergeNode></feMerge></filter><g>0<g pointer-events=""><g><g><polygon points="-128 19, 720 509, 720 546, 16 953, -48 953, -896 463, -896 426, -192 19" fill="#ffffff" stroke-width="2" stroke="#818181"></polygon><polygon points="-160 37, 688 527, -16 934, -864 444" fill="#e6e7e8" stroke-width="0" stroke="#818181"></polygon></g></g></g>0<g pointer-events=""></g><g pointer-events="none"></g><g pointer-events=""><g><g cursor="cell"><line x1="-556" y1="728" x2="-234" y2="542" stroke="red" stroke-width="8" opacity="0"></line><line x1="-556" y1="728" x2="-234" y2="542" stroke="#000000" stroke-width="2" stroke-linecap="round"></line><polygon points="-224 537, -250 542, -236 544, -233 551, -224 537" stroke-linejoin="round" fill="#000000" stroke="#000000" stroke-width="1"></polygon></g></g></g><g pointer-events=""><g><g transform="translate(0 0)"><svg x="-616" y="663" height="95.068" width="63" viewBox="0 0 16.669 25.153"><path d="M16.668 22.903q0 1.64-.864 2.091-.865.451-2.297-.376L3.161 18.645q-1.433-.827-2.297-2.276Q.001 14.921 0 13.28q0-.723.042-1.39.042-.666.166-1.394.124-.727.313-1.302.19-.575.51-1.039.319-.464.733-.683.414-.22 1.012-.147.598.073 1.32.49.107.06.497.58.391.52.882 1.165.491.646 1.279 1.394.788.75 1.58 1.207.793.458 1.58.618.788.161 1.28.083.49-.079.881-.147.39-.069.497-.007.722.416 1.32 1.035.598.619 1.013 1.315.414.697.734 1.531t.509 1.627q.19.793.313 1.664.124.872.166 1.586.042.713.042 1.438zM12.88 8.51q0 2.173-1.332 2.942-1.332.769-3.214-.318-1.882-1.086-3.214-3.393Q3.79 5.434 3.79 3.26q0-2.173 1.331-2.942 1.332-.77 3.214.317t3.214 3.394q1.332 2.306 1.332 4.48z" fill="#000000"></path></svg></g></g></g><g pointer-events=""></g><g pointer-events=""><g><g transform="translate(0 0)"><svg x="-96" y="444" overflow="visible"><g transform="scale(13.015628661377063) matrix(0.707 0.409 -0.707 0.409 0 0)"><svg width="27" height="32" x="-13.5" y="-16" style="fill:#f44336"><svg xmlns="http://www.w3.org/2000/svg" width="27" height="32" viewBox="0 0 27 32"><path d="M16 24.571v-3.429a.564.564 0 0 0-.571-.571H12a.564.564 0 0 0-.571.571v3.429c0 .321.25.571.571.571h3.429c.321 0 .571-.25.571-.571zm4.571-12c0-3.268-3.429-5.714-6.5-5.714-2.911 0-5.089 1.25-6.625 3.804a.561.561 0 0 0 .143.75l2.357 1.786a.55.55 0 0 0 .339.107.564.564 0 0 0 .446-.214c.839-1.071 1.196-1.393 1.536-1.643.304-.214.893-.429 1.536-.429 1.143 0 2.196.732 2.196 1.518 0 .929-.482 1.393-1.571 1.893-1.268.571-3 2.054-3 3.786v.643c0 .321.25.571.571.571h3.429c.321 0 .571-.25.571-.571 0-.411.518-1.286 1.357-1.768 1.357-.768 3.214-1.804 3.214-4.518zM27.429 16c0 7.571-6.143 13.714-13.714 13.714S.001 23.571.001 16 6.144 2.286 13.715 2.286 27.429 8.429 27.429 16z"/></svg></svg></g></svg></g></g></g><g pointer-events=""></g></g></g></svg>