<?xml version="1.0" standalone="no"?>
<!DOCTYPE svg PUBLIC "-//W3C//DTD SVG 1.1//EN"
  "http://www.w3.org/Graphics/SVG/1.1/DTD/svg11.dtd">
<svg version="1.1" xmlns="http://www.w3.org/2000/svg" width="896" height="532" viewBox="-992 -32.5 1792 1064" id="ccdiagram"><defs><style type="text/css">@import url(&#x27;https://fonts.googleapis.com/css?family=Open+Sans:400,700&#x27;);</style></defs><g><filter id="dropshadow" height="130%"><feGaussianBlur in="SourceAlpha" stdDeviation="3"></feGaussianBlur><feOffset dx="3" dy="6" result="offsetblur"></feOffset><feComponentTransfer><feFuncA type="linear" slope="0.4"></feFuncA></feComponentTransfer><feMerge><feMergeNode></feMergeNode><feMergeNode in="SourceGraphic"></feMergeNode></feMerge></filter><g>0<g pointer-events=""><g><g><polygon points="-128 19, 720 509, 720 546, 16 953, -48 953, -896 463, -896 426, -192 19" fill="#ffffff" stroke-width="2" stroke="#818181"></polygon><polygon points="-160 37, 688 527, -16 934, -864 444" fill="#e6e7e8" stroke-width="0" stroke="#818181"></polygon></g></g><g><svg x="73" y="278" overflow="visible" style="user-select:none"><g fill="#9e9e9e"><polygon points="0 0, 151 87, -218 300, -368 213" stroke="#9e9e9e" stroke-width="40"></polygon></g></svg></g><g><svg x="325" y="422" overflow="visible" style="user-select:none"><g fill="#9e9e9e"><polygon points="0 0, 153 89, -218 303, -371 214" stroke="#9e9e9e" stroke-width="40"></polygon></g></svg></g><g><g><polygon points="-528 379, -432 435, -480 463, -512 463, -576 426, -576 407" fill="#4286c5" stroke-width="0" stroke="#818181"></polygon></g></g><g><g><polygon points="-32 666, 64 722, 16 749, -16 749, -80 712, -80 694" fill="#4286c5" stroke-width="0" stroke="#818181"></polygon></g></g><g><svg x="-183" y="129" overflow="visible" style="user-select:none"><g fill="#9e9e9e"><polygon points="0 0, 151 87, -217 301, -369 213" stroke="#9e9e9e" stroke-width="40"></polygon></g></svg></g><g><g><polygon points="-288 518, -192 574, -240 601, -272 601, -336 564, -336 546" fill="#4286c5" stroke-width="0" stroke="#818181"></polygon></g></g></g>0<g pointer-events=""></g><g pointer-events="none"></g><g pointer-events=""><g><g cursor="cell"><line x1="-553" y1="753" x2="-403" y2="840" stroke="red" stroke-width="8" opacity="0"></line><line x1="-553" y1="753" x2="-403" y2="840" stroke="#000000" stroke-width="2" stroke-linecap="round"></line><polygon points="-393 846, -402 831, -405 839, -418 840, -393 846" stroke-linejoin="round" fill="#000000" stroke="#000000" stroke-width="1"></polygon></g></g><g><g cursor="cell"><line x1="-556" y1="728" x2="-410" y2="644" stroke="red" stroke-width="8" opacity="0"></line><line x1="-556" y1="728" x2="-410" y2="644" stroke="#000000" stroke-width="2" stroke-linecap="round"></line><polygon points="-400 638, -426 644, -412 645, -409 653, -400 638" stroke-linejoin="round" fill="#000000" stroke="#000000" stroke-width="1"></polygon></g></g></g><g pointer-events=""><g><g transform="translate(0 0)"><svg x="-416" y="555" height="94" width="97" fill-rule="evenodd"><path d="M0 18.6v18.6l32.333 18.6h32.334L97 37.2V18.6L64.667 0H32.333L0 18.6z" fill="#ececed"></path><path d="M64.667 55.8L97 37.2v37.2L64.667 93V55.8z" fill="#b8b8bb"></path><path d="M32.333 55.8h32.334V93H32.333V55.8zM0 37.2v37.2L32.333 93V55.8L0 37.2z" fill="#d2d2d4"></path><g fill="none" stroke="#83838a" stroke-width="1.04"><path d="M.955 37.877L32.333 55.8h32.334l31.378-17.923M32.333 55.8v36.211M64.667 55.8v36.574"></path></g><path d="M97 18.6v55.8L64.667 93H32.333L0 74.4V18.6L32.333 0h32.334L97 18.6zM32.865 1.989L1.989 19.751v53.498l30.876 17.762h31.27l30.876-17.762V19.751L64.135 1.989h-31.27z" fill="#000000"></path><path d="M69.912 15.583c11.818 6.798 11.818 17.836 0 24.635-11.817 6.798-31.007 6.798-42.824 0-11.818-6.799-11.818-17.837 0-24.635 11.817-6.799 31.007-6.799 42.824 0z" fill="#4286c5"></path><path d="M49.584 14.774c1.824 1.049 1.824 2.753 0 3.802-1.824 1.05-4.786 1.05-6.61 0-1.824-1.049-1.824-2.753 0-3.802 1.824-1.05 4.786-1.05 6.61 0zM60.451 21.025c1.825 1.049 1.825 2.753 0 3.803-1.824 1.049-4.786 1.049-6.61 0-1.824-1.05-1.824-2.754 0-3.803s4.786-1.049 6.61 0zM71.319 27.276c1.824 1.05 1.824 2.754 0 3.803-1.825 1.049-4.787 1.049-6.611 0-1.824-1.049-1.824-2.753 0-3.803 1.824-1.049 4.786-1.049 6.611 0zM38.497 33.654c1.824 1.05 1.824 2.754 0 3.803-1.825 1.05-4.787 1.05-6.611 0-1.824-1.049-1.824-2.753 0-3.803 1.824-1.049 4.786-1.049 6.611 0z" fill="#fff"></path><path d="M47.458 15.878c.453.26.393.717-.133 1.02-.526.303-1.32.337-1.773.076-.452-.26-.392-.717.133-1.019.526-.303 1.321-.337 1.773-.077z" fill="#fff"></path><path d="M48.111 15.621c1.012.582 1.012 1.526 0 2.108-1.011.582-2.653.582-3.664 0-1.012-.582-1.012-1.526 0-2.108 1.011-.582 2.653-.582 3.664 0zM58.978 21.872c1.012.582 1.012 1.527 0 2.108-1.011.582-2.653.582-3.664 0-1.012-.581-1.012-1.526 0-2.108 1.011-.581 2.653-.581 3.664 0zM69.846 28.124c1.011.581 1.011 1.526 0 2.108-1.012.582-2.654.582-3.665 0-1.011-.582-1.011-1.527 0-2.108 1.011-.582 2.653-.582 3.665 0z" fill="#4286c5"></path><path d="M37.024 34.502c1.011.582 1.011 1.526 0 2.108-1.012.582-2.654.582-3.665 0-1.011-.582-1.011-1.526 0-2.108 1.011-.582 2.653-.582 3.665 0z" fill="#fff"></path><g fill="#fff"><path d="M52.301 25.172L37.719 33.56l.482.834 14.584-8.388-.484-.834z"></path><path d="M46.993 26.089l6.654-1.146-4.324 5.168c.189-1.691-.757-3.313-2.33-4.022z" stroke="#fff" stroke-width=".36"></path></g><g fill="#fff"><path d="M43.488 19.937l-6.057 13.797.886.387 6.056-13.798-.885-.386z"></path><path d="M39.76 23.812l4.676-4.854-.405 6.716c-.855-1.474-2.582-2.221-4.271-1.862z" stroke="#fff" stroke-width=".36"></path></g><g fill="#fff"><path d="M61.953 30.061l-23.985 3.483.14.955 23.985-3.486-.14-.952z"></path><path d="M56.68 28.957l6.608 1.387-5.936 3.209c.804-1.503.526-3.358-.672-4.596z" stroke="#fff" stroke-width=".36"></path></g><path d="M37.96 33.977l13.12-7.547M37.873 33.927l5.792-13.134M38.037 34.022l22.478-3.281" fill="#fff" stroke="#fff" stroke-width="1.93"></path></svg></g></g><g><g transform="translate(0 0)"><svg x="-616" y="663" height="95.068" width="63" viewBox="0 0 16.669 25.153"><path d="M16.668 22.903q0 1.64-.864 2.091-.865.451-2.297-.376L3.161 18.645q-1.433-.827-2.297-2.276Q.001 14.921 0 13.28q0-.723.042-1.39.042-.666.166-1.394.124-.727.313-1.302.19-.575.51-1.039.319-.464.733-.683.414-.22 1.012-.147.598.073 1.32.49.107.06.497.58.391.52.882 1.165.491.646 1.279 1.394.788.75 1.58 1.207.793.458 1.58.618.788.161 1.28.083.49-.079.881-.147.39-.069.497-.007.722.416 1.32 1.035.598.619 1.013 1.315.414.697.734 1.531t.509 1.627q.19.793.313 1.664.124.872.166 1.586.042.713.042 1.438zM12.88 8.51q0 2.173-1.332 2.942-1.332.769-3.214-.318-1.882-1.086-3.214-3.393Q3.79 5.434 3.79 3.26q0-2.173 1.331-2.942 1.332-.77 3.214.317t3.214 3.394q1.332 2.306 1.332 4.48z" fill="#000000"></path></svg></g></g><g><g transform="translate(0 0)"><svg x="-393" y="817" height="93.28" width="81" viewBox="0 0 21.431124 24.680386"><path d="M.268 5.102l12.537 7.238 5.224-.603 3.134-9.048L16.984.276 1.313 2.086z" fill="#ececed" fill-rule="evenodd"></path><path d="M.268 5.102v12.064l12.537 7.238V12.34z" fill="#d2d2d4" fill-rule="evenodd"></path><path d="M12.805 12.34l5.224-.603v12.064l-5.224.603z" fill="#d2d2d4" fill-rule="evenodd"></path><path d="M18.029 11.737l3.134-9.048v12.064l-3.134 9.048z" fill="#b8b8bb" fill-rule="evenodd"></path><path d="M.268 5.102l12.537 7.238 5.224-.603 3.134-9.048M18.029 11.737v12.064M12.805 12.34v12.064" fill="none" stroke="#83838a" stroke-width=".265"></path><path d="M.268 17.166l12.537 7.238 5.224-.603 3.134-9.048V2.689L16.984.276 1.313 2.086.268 5.102z" fill="none" stroke="#000000" stroke-width=".529"></path><path d="M16.852 3.319c-.637-.01-1.269-.156-1.755-.437-.486-.28-.738-.645-.756-1.013l-3.498.035c.11.43-.121.884-.694 1.215-.364.21-.812.34-1.282.391-.625.068-1.225.242-1.709.521-1.273.735-1.277 1.926-.013 2.664.733.423 1.145.956 1.247 1.509.957.059 1.88.296 2.613.72 1.279.73 3.34.727 4.614-.008.483-.28.784-.626.902-.987.089-.271.315-.53.678-.74.573-.33 1.36-.464 2.104-.4l.061-2.02c-.637-.01-1.269-.156-1.755-.437-.486-.28-.739-.645-.757-1.013z" fill="none"></path><path d="M17.277 4.302c.467.27 1.056.427 1.664.471l-.05 1.693c-.73-.014-1.466.14-2.023.462-.404.234-.655.522-.754.824-.107.33-.381.647-.823.902-1.16.671-3.041.674-4.207.007-.722-.418-1.619-.665-2.555-.75-.144-.54-.573-1.06-1.296-1.477C6.081 5.759 6.086 4.672 7.247 4c.441-.256.989-.414 1.559-.476.522-.057 1.02-.203 1.424-.436.557-.322.823-.749.8-1.17l2.926-.03c.076.352.348.693.815.963.473.274 1.071.432 1.688.473.072.357.345.703.818.976z" fill="#4286c5" fill-rule="evenodd"></path><g style="line-height:0%" fill="#fff" font-family="Interstate" font-size="5.176" stroke-width=".268"><path style="line-height:1.25;-inkscape-font-specification:Interstate" d="M11.246 3.567l1.863 1.078-.399.231-1.429-.826-.86.497q.139.04.259.09.122.049.225.108.588.34.609.725.021.385-.529.703-.566.327-1.233.305-.665-.023-1.307-.394-.22-.127-.414-.282-.19-.154-.36-.339l.478-.276q.096.19.265.352.17.163.421.309.407.235.858.249.45.013.818-.199.366-.212.343-.473-.024-.26-.43-.496-.19-.11-.423-.196-.23-.084-.517-.147zM14.127 7.104q.268.239.228.482-.038.245-.376.44-.52.3-1.16.259-.642-.042-1.3-.423-.221-.128-.412-.29-.19-.158-.352-.353l.458-.265q.082.18.259.35.176.17.432.319.446.258.855.29.412.035.748-.16.31-.179.265-.406-.04-.227-.428-.451l-.408-.237.39-.225.427.247q.35.202.675.23.326.026.59-.127.27-.156.22-.35-.044-.195-.401-.401-.195-.113-.461-.218-.266-.104-.623-.208l.423-.244q.346.112.618.227.275.115.484.236.54.313.609.638.07.323-.348.565-.291.168-.66.189-.367.019-.752-.114z"></path></g></svg></g></g></g><g pointer-events=""></g><g pointer-events=""><g><g transform="translate(0 0)"><svg x="-672" y="481" overflow="visible"><g transform="scale(2.729575167846423) matrix(0.707 0.409 -0.707 0.409 0 0)"><svg width="100" height="100" x="-50" y="-50" style="fill:#ffffff"><svg data-name="Layer 1" xmlns="http://www.w3.org/2000/svg" width="100" height="100" viewBox="0 0 100 100"><path d="M85.23 58v3.19C85.23 67 78.85 73 71 73H29c-7.85 0-14.23-6-14.23-11.81V58z" fill="#9d5125"/><path d="M41.89 26.9a18 18 0 0 1 16.42 10.56 9.14 9.14 0 0 1 14.29 7.18c7.1.59 12.63 7.44 12.63 12.88v1.18c0 5.85-6.38 11.78-14.26 11.78H29c-7.86 0-14.24-5.93-14.24-11.78v-1.17c0-4.51 3.79-10.71 9.12-12.25v-.51A17.94 17.94 0 0 1 41.89 26.9z" fill="#f58535"/><path d="M31.84 47.81h2.79L37.43 61l3-13.16h2.79l-4.15 16.45h-3.35zM44.91 47.81h5.22c3.16 0 4.55 2 4.55 4.8s-1.73 4.87-4.82 4.87h-2.32v6.81h-2.63zm2.63 7.69h1.87c1.41 0 2.63-.76 2.63-2.84 0-1.78-.71-2.86-2.82-2.86h-1.68zM67 58.38v.35c0 3-1.2 5.89-5.08 5.89-4.16 0-5.45-2.68-5.45-8.56s1.29-8.56 5.47-8.56c4.68 0 5 3.46 5 5.17V53h-2.62v-.28c0-1.52-.46-3.28-2.35-3.21s-2.82 1.2-2.82 6.51.85 6.61 2.85 6.61c2.19 0 2.45-2.45 2.45-4v-.28z" fill="#fff"/></svg></svg></g></svg></g></g></g><g pointer-events=""><g><g transform="translate(0 0)"><svg x="-291" y="890" overflow="visible" style="user-select:none"><text stroke="#ffffff" stroke-width="4" font-family="Open Sans" y="25.099999999999998" font-size="15pt" fill="#4286c5" font-weight="bold" transform="matrix(0.707 0.409 -0.707 0.409 0 0)" xml:space="preserve"><tspan x="8" dy="0">Amazon</tspan></text><text font-family="Open Sans" y="25.099999999999998" font-size="15pt" fill="#4286c5" font-weight="bold" transform="matrix(0.707 0.409 -0.707 0.409 0 0)" xml:space="preserve"><tspan x="8" dy="0">Amazon</tspan></text></svg></g></g><g><g transform="translate(0 0)"><svg x="-304" y="897" overflow="visible" style="user-select:none"><text stroke="#ffffff" stroke-width="4" font-family="Open Sans" y="36.5" font-size="25pt" fill="#4286c5" font-weight="bold" transform="matrix(0.707 0.409 -0.707 0.409 0 0)" xml:space="preserve"><tspan x="8" dy="0">Route 53</tspan></text><text font-family="Open Sans" y="36.5" font-size="25pt" fill="#4286c5" font-weight="bold" transform="matrix(0.707 0.409 -0.707 0.409 0 0)" xml:space="preserve"><tspan x="8" dy="0">Route 53</tspan></text></svg></g></g><g><g transform="translate(0 0)"><svg x="-496" y="398" overflow="visible" style="user-select:none"><text stroke="#000000" stroke-width="2" font-family="Open Sans" y="65" font-size="50pt" fill="#ffffff" font-weight="bold" transform="matrix(0.707 0.409 -0.707 0.409 0 0)" xml:space="preserve"><tspan x="8" dy="0">A</tspan></text><text font-family="Open Sans" y="65" font-size="50pt" fill="#ffffff" font-weight="bold" transform="matrix(0.707 0.409 -0.707 0.409 0 0)" xml:space="preserve"><tspan x="8" dy="0">A</tspan></text></svg></g></g><g><g transform="translate(0 0)"><svg x="-256" y="666" overflow="visible" style="user-select:none"><text stroke="#ffffff" stroke-width="4" font-family="Open Sans" y="36.5" font-size="25pt" fill="#4286c5" font-weight="bold" transform="matrix(0.707 0.409 -0.707 0.409 0 0)" xml:space="preserve"><tspan x="8" dy="0">Frontend ALB</tspan></text><text font-family="Open Sans" y="36.5" font-size="25pt" fill="#4286c5" font-weight="bold" transform="matrix(0.707 0.409 -0.707 0.409 0 0)" xml:space="preserve"><tspan x="8" dy="0">Frontend ALB</tspan></text></svg></g></g><g><g transform="translate(0 0)"><svg x="-281" y="362" overflow="visible" style="user-select:none"><text stroke="#000000" stroke-width="2" font-family="Open Sans" y="25.099999999999998" font-size="15pt" fill="#ffffff" font-weight="bold" transform="matrix(0.707 -0.409 0.707 0.409 0 0)" xml:space="preserve"><tspan x="8" dy="0">Availability Zone</tspan></text><text font-family="Open Sans" y="25.099999999999998" font-size="15pt" fill="#ffffff" font-weight="bold" transform="matrix(0.707 -0.409 0.707 0.409 0 0)" xml:space="preserve"><tspan x="8" dy="0">Availability Zone</tspan></text></svg></g></g><g><g transform="translate(0 0)"><svg x="229" y="655" overflow="visible" style="user-select:none"><text stroke="#000000" stroke-width="2" font-family="Open Sans" y="25.099999999999998" font-size="15pt" fill="#ffffff" font-weight="bold" transform="matrix(0.707 -0.409 0.707 0.409 0 0)" xml:space="preserve"><tspan x="8" dy="0">Availability Zone</tspan></text><text font-family="Open Sans" y="25.099999999999998" font-size="15pt" fill="#ffffff" font-weight="bold" transform="matrix(0.707 -0.409 0.707 0.409 0 0)" xml:space="preserve"><tspan x="8" dy="0">Availability Zone</tspan></text></svg></g></g><g><g transform="translate(0 0)"><svg x="32" y="648" overflow="visible" style="user-select:none"><text stroke="#000000" stroke-width="2" font-family="Open Sans" y="36.5" font-size="25pt" fill="#ffffff" font-weight="bold" transform="matrix(0.707 0.409 -0.707 0.409 0 0)" xml:space="preserve"><tspan x="8" dy="0">EC2</tspan></text><text font-family="Open Sans" y="36.5" font-size="25pt" fill="#ffffff" font-weight="bold" transform="matrix(0.707 0.409 -0.707 0.409 0 0)" xml:space="preserve"><tspan x="8" dy="0">EC2</tspan></text></svg></g></g><g><g transform="translate(0 0)"><svg x="-528" y="379" overflow="visible" style="user-select:none"><text stroke="#000000" stroke-width="2" font-family="Open Sans" y="36.5" font-size="25pt" fill="#ffffff" font-weight="bold" transform="matrix(0.707 0.409 -0.707 0.409 0 0)" xml:space="preserve"><tspan x="8" dy="0">AZ</tspan></text><text font-family="Open Sans" y="36.5" font-size="25pt" fill="#ffffff" font-weight="bold" transform="matrix(0.707 0.409 -0.707 0.409 0 0)" xml:space="preserve"><tspan x="8" dy="0">AZ</tspan></text></svg></g></g><g><g transform="translate(0 0)"><svg x="4" y="689" overflow="visible" style="user-select:none"><text stroke="#000000" stroke-width="2" font-family="Open Sans" y="65" font-size="50pt" fill="#ffffff" font-weight="bold" transform="matrix(0.707 0.409 -0.707 0.409 0 0)" xml:space="preserve"><tspan x="8" dy="0">C</tspan></text><text font-family="Open Sans" y="65" font-size="50pt" fill="#ffffff" font-weight="bold" transform="matrix(0.707 0.409 -0.707 0.409 0 0)" xml:space="preserve"><tspan x="8" dy="0">C</tspan></text></svg></g></g><g><g transform="translate(0 0)"><svg x="-32" y="666" overflow="visible" style="user-select:none"><text stroke="#000000" stroke-width="2" font-family="Open Sans" y="36.5" font-size="25pt" fill="#ffffff" font-weight="bold" transform="matrix(0.707 0.409 -0.707 0.409 0 0)" xml:space="preserve"><tspan x="8" dy="0">AZ</tspan></text><text font-family="Open Sans" y="36.5" font-size="25pt" fill="#ffffff" font-weight="bold" transform="matrix(0.707 0.409 -0.707 0.409 0 0)" xml:space="preserve"><tspan x="8" dy="0">AZ</tspan></text></svg></g></g><g><g transform="translate(0 0)"><svg x="-288" y="518" overflow="visible" style="user-select:none"><text stroke="#000000" stroke-width="2" font-family="Open Sans" y="36.5" font-size="25pt" fill="#ffffff" font-weight="bold" transform="matrix(0.707 0.409 -0.707 0.409 0 0)" xml:space="preserve"><tspan x="8" dy="0">AZ</tspan></text><text font-family="Open Sans" y="36.5" font-size="25pt" fill="#ffffff" font-weight="bold" transform="matrix(0.707 0.409 -0.707 0.409 0 0)" xml:space="preserve"><tspan x="8" dy="0">AZ</tspan></text></svg></g></g><g><g transform="translate(0 0)"><svg x="-256" y="537" overflow="visible" style="user-select:none"><text stroke="#000000" stroke-width="2" font-family="Open Sans" y="65" font-size="50pt" fill="#ffffff" font-weight="bold" transform="matrix(0.707 0.409 -0.707 0.409 0 0)" xml:space="preserve"><tspan x="8" dy="0">B</tspan></text><text font-family="Open Sans" y="65" font-size="50pt" fill="#ffffff" font-weight="bold" transform="matrix(0.707 0.409 -0.707 0.409 0 0)" xml:space="preserve"><tspan x="8" dy="0">B</tspan></text></svg></g></g><g><g transform="translate(0 0)"><svg x="-27" y="510" overflow="visible" style="user-select:none"><text stroke="#000000" stroke-width="2" font-family="Open Sans" y="25.099999999999998" font-size="15pt" fill="#ffffff" font-weight="bold" transform="matrix(0.707 -0.409 0.707 0.409 0 0)" xml:space="preserve"><tspan x="8" dy="0">Availability Zone</tspan></text><text font-family="Open Sans" y="25.099999999999998" font-size="15pt" fill="#ffffff" font-weight="bold" transform="matrix(0.707 -0.409 0.707 0.409 0 0)" xml:space="preserve"><tspan x="8" dy="0">Availability Zone</tspan></text></svg></g></g></g></g></g></svg>